G75*
%MOIN*%
%OFA0B0*%
%FSLAX24Y24*%
%IPPOS*%
%LPD*%
%AMOC8*
5,1,8,0,0,1.08239X$1,22.5*
%
%ADD10C,0.0020*%
%ADD11C,0.0040*%
%ADD12C,0.0030*%
%ADD13C,0.0050*%
%ADD14C,0.0080*%
%ADD15R,0.0193X0.0433*%
%ADD16R,0.0374X0.0197*%
%ADD17C,0.0060*%
%ADD18R,0.0200X0.0200*%
%ADD19R,0.0591X0.0295*%
%ADD20R,0.0591X0.0591*%
%ADD21R,0.0197X0.0374*%
%ADD22R,0.0080X0.0330*%
%ADD23R,0.0207X0.0118*%
%ADD24R,0.0200X0.0350*%
%ADD25R,0.0197X0.0374*%
%ADD26R,0.0160X0.0340*%
%ADD27R,0.0340X0.0160*%
D10*
X001572Y002635D02*
X001658Y002722D01*
X001658Y002895D01*
X001743Y002852D02*
X001743Y002808D01*
X001786Y002765D01*
X001873Y002765D01*
X001916Y002722D01*
X001916Y002678D01*
X001873Y002635D01*
X001786Y002635D01*
X001743Y002678D01*
X001743Y002852D02*
X001786Y002895D01*
X001873Y002895D01*
X001916Y002852D01*
X002001Y002765D02*
X002174Y002765D01*
X002087Y002852D02*
X002087Y002678D01*
X002585Y002722D02*
X002672Y002635D01*
X002758Y002722D01*
X002758Y002895D01*
X002843Y002852D02*
X002843Y002808D01*
X002886Y002765D01*
X002973Y002765D01*
X003016Y002722D01*
X003016Y002678D01*
X002973Y002635D01*
X002886Y002635D01*
X002843Y002678D01*
X002843Y002852D02*
X002886Y002895D01*
X002973Y002895D01*
X003016Y002852D01*
X003101Y002765D02*
X003274Y002765D01*
X003435Y002697D02*
X003522Y002610D01*
X003608Y002697D01*
X003608Y002870D01*
X003693Y002783D02*
X003693Y002610D01*
X003693Y002697D02*
X003780Y002783D01*
X003823Y002783D01*
X003908Y002740D02*
X003951Y002783D01*
X004038Y002783D01*
X004081Y002740D01*
X004081Y002697D01*
X003908Y002697D01*
X003908Y002740D02*
X003908Y002653D01*
X003951Y002610D01*
X004038Y002610D01*
X004165Y002740D02*
X004252Y002740D01*
X004209Y002827D02*
X004209Y002610D01*
X004209Y002827D02*
X004252Y002870D01*
X004435Y002870D02*
X004435Y002697D01*
X004522Y002610D01*
X004608Y002697D01*
X004608Y002870D01*
X004693Y002827D02*
X004693Y002653D01*
X004736Y002610D01*
X004823Y002610D01*
X004866Y002653D01*
X004951Y002653D02*
X004951Y002827D01*
X004994Y002870D01*
X005081Y002870D01*
X005124Y002827D01*
X005124Y002653D02*
X005081Y002610D01*
X004994Y002610D01*
X004951Y002653D01*
X004866Y002827D02*
X004823Y002870D01*
X004736Y002870D01*
X004693Y002827D01*
X005390Y002827D02*
X005390Y002653D01*
X005433Y002610D01*
X005520Y002610D01*
X005563Y002653D01*
X005563Y002740D01*
X005477Y002740D01*
X005563Y002827D02*
X005520Y002870D01*
X005433Y002870D01*
X005390Y002827D01*
X005648Y002870D02*
X005648Y002610D01*
X005821Y002610D02*
X005648Y002870D01*
X005821Y002870D02*
X005821Y002610D01*
X005906Y002610D02*
X005906Y002870D01*
X006036Y002870D01*
X006079Y002827D01*
X006079Y002653D01*
X006036Y002610D01*
X005906Y002610D01*
X006485Y002697D02*
X006572Y002610D01*
X006658Y002697D01*
X006658Y002870D01*
X006743Y002827D02*
X006743Y002653D01*
X006786Y002610D01*
X006873Y002610D01*
X006916Y002653D01*
X007001Y002740D02*
X007174Y002740D01*
X007335Y002697D02*
X007422Y002610D01*
X007508Y002697D01*
X007508Y002870D01*
X007636Y002783D02*
X007593Y002740D01*
X007593Y002653D01*
X007636Y002610D01*
X007723Y002610D01*
X007766Y002653D01*
X007766Y002740D01*
X007723Y002783D01*
X007636Y002783D01*
X007851Y002783D02*
X007851Y002653D01*
X007894Y002610D01*
X008024Y002610D01*
X008024Y002783D01*
X008108Y002783D02*
X008195Y002783D01*
X008152Y002827D02*
X008152Y002653D01*
X008195Y002610D01*
X007335Y002697D02*
X007335Y002870D01*
X006916Y002827D02*
X006873Y002870D01*
X006786Y002870D01*
X006743Y002827D01*
X006485Y002870D02*
X006485Y002697D01*
X003435Y002697D02*
X003435Y002870D01*
X002585Y002895D02*
X002585Y002722D01*
X001572Y002635D02*
X001485Y002722D01*
X001485Y002895D01*
X001700Y009841D02*
X001700Y011459D01*
X003500Y011459D01*
X003500Y009841D01*
X001700Y009841D01*
X005700Y016431D02*
X005773Y016431D01*
X005810Y016467D01*
X005810Y016614D01*
X005773Y016651D01*
X005700Y016651D01*
X005663Y016614D01*
X005663Y016467D01*
X005700Y016431D01*
X005884Y016431D02*
X005884Y016651D01*
X006031Y016431D01*
X006031Y016651D01*
X005855Y014633D02*
X005781Y014560D01*
X005855Y014633D02*
X005855Y014413D01*
X005928Y014413D02*
X005781Y014413D01*
X006781Y014413D02*
X006928Y014560D01*
X006928Y014596D01*
X006891Y014633D01*
X006818Y014633D01*
X006781Y014596D01*
X006781Y014413D02*
X006928Y014413D01*
X007781Y014450D02*
X007818Y014413D01*
X007891Y014413D01*
X007928Y014450D01*
X007928Y014486D01*
X007891Y014523D01*
X007855Y014523D01*
X007891Y014523D02*
X007928Y014560D01*
X007928Y014596D01*
X007891Y014633D01*
X007818Y014633D01*
X007781Y014596D01*
D11*
X006145Y008665D02*
X006145Y008385D01*
X005810Y008385D02*
X005810Y008665D01*
X005515Y008665D02*
X005515Y008385D01*
X005180Y008385D02*
X005180Y008665D01*
X005245Y005929D02*
X005552Y005622D01*
X005552Y005775D02*
X005245Y005775D01*
X005245Y005622D02*
X005552Y005929D01*
X005398Y005929D02*
X005398Y005622D01*
X007685Y005665D02*
X007685Y005385D01*
X008020Y005385D02*
X008020Y005665D01*
X008015Y006760D02*
X008015Y007040D01*
X007680Y007040D02*
X007680Y006760D01*
X002865Y013110D02*
X002585Y013110D01*
X002585Y013445D02*
X002865Y013445D01*
X002115Y015355D02*
X001835Y015355D01*
X001835Y015690D02*
X002115Y015690D01*
X002115Y016230D02*
X001835Y016230D01*
X001835Y016565D02*
X002115Y016565D01*
X001140Y014540D02*
X001140Y014260D01*
X000805Y014260D02*
X000805Y014540D01*
X001335Y013440D02*
X001615Y013440D01*
X001615Y013105D02*
X001335Y013105D01*
D12*
X001365Y016670D02*
X001172Y016960D01*
X001172Y016670D01*
X001071Y016670D02*
X001071Y016960D01*
X000926Y016960D01*
X000877Y016912D01*
X000877Y016718D01*
X000926Y016670D01*
X001071Y016670D01*
X001365Y016670D02*
X001365Y016960D01*
X001467Y016912D02*
X001467Y016815D01*
X001563Y016815D01*
X001467Y016912D02*
X001515Y016960D01*
X001612Y016960D01*
X001660Y016912D01*
X001660Y016718D01*
X001612Y016670D01*
X001515Y016670D01*
X001467Y016718D01*
X001902Y016718D02*
X001951Y016670D01*
X002096Y016670D01*
X002096Y016960D01*
X001951Y016960D01*
X001902Y016912D01*
X001902Y016718D01*
X002197Y016718D02*
X002245Y016670D01*
X002390Y016670D01*
X002390Y016960D01*
X002245Y016960D01*
X002197Y016912D01*
X002197Y016718D01*
X002492Y016670D02*
X002492Y016863D01*
X002588Y016960D01*
X002685Y016863D01*
X002685Y016670D01*
X002827Y016767D02*
X002827Y016960D01*
X002827Y016815D02*
X003021Y016815D01*
X003021Y016767D02*
X003021Y016960D01*
X003122Y016912D02*
X003122Y016718D01*
X003170Y016670D01*
X003315Y016670D01*
X003315Y016960D01*
X003170Y016960D01*
X003122Y016912D01*
X003021Y016767D02*
X002924Y016670D01*
X002827Y016767D01*
X003417Y016718D02*
X003465Y016670D01*
X003562Y016670D01*
X003610Y016718D01*
X003610Y016767D01*
X003562Y016815D01*
X003465Y016815D01*
X003417Y016863D01*
X003417Y016912D01*
X003465Y016960D01*
X003562Y016960D01*
X003610Y016912D01*
X003827Y016960D02*
X004021Y016960D01*
X004021Y016670D01*
X004122Y016718D02*
X004170Y016670D01*
X004267Y016670D01*
X004315Y016718D01*
X004315Y016912D01*
X004267Y016960D01*
X004170Y016960D01*
X004122Y016912D01*
X004417Y016912D02*
X004465Y016960D01*
X004562Y016960D01*
X004610Y016912D01*
X004562Y016815D02*
X004465Y016815D01*
X004417Y016863D01*
X004417Y016912D01*
X004417Y016718D02*
X004465Y016670D01*
X004562Y016670D01*
X004610Y016718D01*
X004610Y016767D01*
X004562Y016815D01*
D13*
X004630Y016175D02*
X004598Y016143D01*
X004630Y016175D02*
X004693Y016175D01*
X004725Y016143D01*
X004725Y016017D01*
X004693Y015985D01*
X004630Y015985D01*
X004598Y016017D01*
X004504Y016080D02*
X004504Y016143D01*
X004472Y016175D01*
X004409Y016175D01*
X004377Y016143D01*
X004377Y016080D01*
X004409Y016048D01*
X004472Y016048D01*
X004504Y016080D01*
X004283Y016048D02*
X004188Y016048D01*
X004156Y016080D01*
X004156Y016175D01*
X004030Y016143D02*
X004030Y016017D01*
X003999Y016048D02*
X004062Y016048D01*
X004030Y016143D02*
X003999Y016175D01*
X003915Y016175D02*
X003915Y016048D01*
X003915Y016112D02*
X003851Y016048D01*
X003820Y016048D01*
X003731Y016080D02*
X003731Y016143D01*
X003699Y016175D01*
X003635Y016175D01*
X003604Y016143D01*
X003604Y016080D01*
X003635Y016048D01*
X003699Y016048D01*
X003731Y016080D01*
X003510Y016175D02*
X003446Y016175D01*
X003478Y016175D02*
X003478Y015985D01*
X003510Y015985D01*
X003362Y015985D02*
X003331Y015985D01*
X003331Y016175D01*
X003362Y016175D02*
X003299Y016175D01*
X003215Y016143D02*
X003215Y016080D01*
X003183Y016048D01*
X003120Y016048D01*
X003088Y016080D01*
X003088Y016112D01*
X003215Y016112D01*
X003215Y016143D02*
X003183Y016175D01*
X003120Y016175D01*
X002994Y016175D02*
X002994Y016048D01*
X002931Y016048D02*
X002994Y016112D01*
X002931Y016048D02*
X002899Y016048D01*
X002850Y015775D02*
X002850Y013775D01*
X004850Y013775D01*
X004850Y015775D01*
X002850Y015775D01*
X002725Y015025D02*
X002663Y015025D01*
X002663Y014963D01*
X002725Y014963D01*
X002725Y015025D01*
X002725Y014963D02*
X002725Y013775D01*
X001475Y013775D01*
X001475Y015025D01*
X002663Y015025D01*
X004283Y016048D02*
X004283Y016175D01*
X004100Y008900D02*
X003600Y008900D01*
X003600Y007900D01*
X004100Y007900D01*
X004100Y008900D01*
X004100Y006400D02*
X002100Y006400D01*
X002100Y004400D01*
X004100Y004400D01*
X004100Y006400D01*
X002600Y008025D02*
X002600Y009025D01*
X002100Y009025D01*
X002100Y008025D01*
X002600Y008025D01*
X001600Y008150D02*
X001600Y007150D01*
X001100Y007150D01*
X001100Y008150D01*
X001600Y008150D01*
X002225Y004650D02*
X002227Y004672D01*
X002233Y004693D01*
X002242Y004712D01*
X002254Y004730D01*
X002270Y004746D01*
X002287Y004758D01*
X002307Y004767D01*
X002328Y004773D01*
X002350Y004775D01*
X002372Y004773D01*
X002393Y004767D01*
X002412Y004758D01*
X002430Y004746D01*
X002446Y004730D01*
X002458Y004712D01*
X002467Y004693D01*
X002473Y004672D01*
X002475Y004650D01*
X002473Y004628D01*
X002467Y004607D01*
X002458Y004588D01*
X002446Y004570D01*
X002430Y004554D01*
X002413Y004542D01*
X002393Y004533D01*
X002372Y004527D01*
X002350Y004525D01*
X002328Y004527D01*
X002307Y004533D01*
X002287Y004542D01*
X002270Y004554D01*
X002254Y004570D01*
X002242Y004587D01*
X002233Y004607D01*
X002227Y004628D01*
X002225Y004650D01*
X007788Y009775D02*
X008163Y009775D01*
X008163Y010338D02*
X007975Y010338D01*
X007850Y010463D01*
X007788Y010338D02*
X007975Y010338D01*
X008100Y010463D01*
X008100Y011588D02*
X007975Y011713D01*
X007850Y011588D01*
X007788Y011713D02*
X007975Y011713D01*
X008163Y011713D01*
X008163Y012275D02*
X007788Y012275D01*
D14*
X001225Y001000D02*
X001475Y000750D01*
X001975Y000750D01*
X002225Y001000D01*
X002475Y000750D01*
X002975Y000750D01*
X003225Y001000D01*
X003475Y000750D01*
X003975Y000750D01*
X004225Y001000D01*
X004225Y001500D01*
X003975Y001750D01*
X003475Y001750D01*
X003225Y001500D01*
X002975Y001750D01*
X002475Y001750D01*
X002225Y001500D01*
X001975Y001750D01*
X001475Y001750D01*
X001225Y001500D01*
X001225Y001000D01*
X004225Y001000D02*
X004475Y000750D01*
X004975Y000750D01*
X005225Y001000D01*
X005475Y000750D01*
X005975Y000750D01*
X006225Y001000D01*
X006475Y000750D01*
X006975Y000750D01*
X007225Y001000D01*
X007475Y000750D01*
X007975Y000750D01*
X008225Y001000D01*
X008225Y001500D01*
X007975Y001750D01*
X007475Y001750D01*
X007225Y001500D01*
X006975Y001750D01*
X006475Y001750D01*
X006225Y001500D01*
X005975Y001750D01*
X005475Y001750D01*
X005225Y001500D01*
X004975Y001750D01*
X004475Y001750D01*
X004225Y001500D01*
X004225Y001000D01*
X005155Y005527D02*
X005155Y005724D01*
X007045Y005724D01*
X007045Y005527D01*
X005155Y005527D01*
X005155Y005724D02*
X005155Y007023D01*
X007045Y007023D01*
X007045Y005724D01*
X006158Y010761D02*
X006158Y011176D01*
X005990Y011176D01*
X005460Y011176D02*
X005292Y011176D01*
X005292Y010761D01*
X004854Y010761D02*
X004854Y011176D01*
X004686Y011176D01*
X004156Y011176D02*
X003988Y011176D01*
X003988Y010761D01*
X005100Y014255D02*
X008590Y014255D01*
X008372Y014255D01*
X008590Y014255D02*
X008590Y016795D01*
X005100Y016795D01*
X005100Y014255D01*
X005592Y014255D01*
X005110Y014738D01*
X005319Y014255D02*
X005592Y014255D01*
X005555Y014738D02*
X005555Y016312D01*
X006145Y016312D01*
X006145Y014738D01*
X005555Y014738D01*
X006319Y014255D02*
X006372Y014255D01*
X006555Y014738D02*
X006555Y016312D01*
X007145Y016312D01*
X007145Y014738D01*
X006555Y014738D01*
X007319Y014255D02*
X007372Y014255D01*
X007555Y014738D02*
X007555Y016312D01*
X008145Y016312D01*
X008145Y014738D01*
X007555Y014738D01*
X007711Y013159D02*
X007239Y013159D01*
X007239Y012391D01*
X007711Y012391D01*
X007711Y013159D01*
X007372Y016795D02*
X007319Y016795D01*
X006372Y016795D02*
X006319Y016795D01*
X005319Y016795D02*
X005100Y016795D01*
X004475Y017775D02*
X003975Y017775D01*
X003725Y018025D01*
X003475Y017775D01*
X002975Y017775D01*
X002725Y018025D01*
X002475Y017775D01*
X001975Y017775D01*
X001725Y018025D01*
X001475Y017775D01*
X000975Y017775D01*
X000725Y018025D01*
X000725Y018525D01*
X000975Y018775D01*
X001475Y018775D01*
X001725Y018525D01*
X001975Y018775D01*
X002475Y018775D01*
X002725Y018525D01*
X002975Y018775D01*
X003475Y018775D01*
X003725Y018525D01*
X003975Y018775D01*
X004475Y018775D01*
X004725Y018525D01*
X004725Y018025D01*
X004475Y017775D01*
X008372Y016795D02*
X008590Y016795D01*
D15*
X006850Y007279D03*
X006350Y007279D03*
X005850Y007279D03*
X005350Y007279D03*
X005350Y005271D03*
X005850Y005271D03*
X006350Y005271D03*
X006850Y005271D03*
D16*
X007852Y005297D03*
X007852Y005757D03*
X007848Y006668D03*
X007848Y007128D03*
X005977Y008297D03*
X005977Y008757D03*
X005348Y008753D03*
X005348Y008293D03*
X000973Y014168D03*
X000973Y014628D03*
D17*
X001305Y012540D02*
X001645Y012540D01*
X001645Y012260D02*
X001305Y012260D01*
X001610Y011549D02*
X001610Y009751D01*
X003590Y009751D01*
X003590Y011549D01*
X001610Y011549D01*
X001780Y010170D02*
X001782Y010196D01*
X001788Y010222D01*
X001797Y010246D01*
X001810Y010269D01*
X001826Y010290D01*
X001845Y010308D01*
X001866Y010324D01*
X001890Y010336D01*
X001914Y010344D01*
X001940Y010349D01*
X001967Y010350D01*
X001993Y010347D01*
X002018Y010340D01*
X002042Y010330D01*
X002065Y010316D01*
X002085Y010300D01*
X002102Y010280D01*
X002117Y010258D01*
X002128Y010234D01*
X002136Y010209D01*
X002140Y010183D01*
X002140Y010157D01*
X002136Y010131D01*
X002128Y010106D01*
X002117Y010082D01*
X002102Y010060D01*
X002085Y010040D01*
X002065Y010024D01*
X002042Y010010D01*
X002018Y010000D01*
X001993Y009993D01*
X001967Y009990D01*
X001940Y009991D01*
X001914Y009996D01*
X001890Y010004D01*
X001866Y010016D01*
X001845Y010032D01*
X001826Y010050D01*
X001810Y010071D01*
X001797Y010094D01*
X001788Y010118D01*
X001782Y010144D01*
X001780Y010170D01*
X001240Y009070D02*
X001240Y008730D01*
X000960Y008730D02*
X000960Y009070D01*
X001180Y006415D02*
X001520Y006415D01*
X001520Y006135D02*
X001180Y006135D01*
X001180Y005540D02*
X001520Y005540D01*
X001520Y005260D02*
X001180Y005260D01*
X001180Y004665D02*
X001520Y004665D01*
X001520Y004385D02*
X001180Y004385D01*
X002460Y003945D02*
X002460Y003605D01*
X002740Y003605D02*
X002740Y003945D01*
X003335Y003945D02*
X003335Y003605D01*
X003615Y003605D02*
X003615Y003945D01*
X004210Y003945D02*
X004210Y003605D01*
X004490Y003605D02*
X004490Y003945D01*
X005085Y003945D02*
X005085Y003605D01*
X005365Y003605D02*
X005365Y003945D01*
X004740Y005730D02*
X004740Y006070D01*
X004460Y006070D02*
X004460Y005730D01*
X004460Y006980D02*
X004460Y007320D01*
X004740Y007320D02*
X004740Y006980D01*
X003865Y006980D02*
X003865Y007320D01*
X003585Y007320D02*
X003585Y006980D01*
X002990Y006980D02*
X002990Y007320D01*
X002710Y007320D02*
X002710Y006980D01*
X004251Y009760D02*
X004591Y009760D01*
X004591Y010040D02*
X004251Y010040D01*
X003979Y010640D02*
X003979Y011160D01*
X004863Y011160D01*
X004863Y010640D01*
X003979Y010640D01*
X004234Y011760D02*
X004574Y011760D01*
X004574Y012040D02*
X004234Y012040D01*
X005283Y011160D02*
X005283Y010640D01*
X006167Y010640D01*
X006167Y011160D01*
X005283Y011160D01*
X005555Y011760D02*
X005895Y011760D01*
X005895Y012040D02*
X005555Y012040D01*
X005555Y010040D02*
X005895Y010040D01*
X005895Y009760D02*
X005555Y009760D01*
X006700Y009240D02*
X006700Y008560D01*
X006702Y008543D01*
X006706Y008526D01*
X006713Y008510D01*
X006723Y008496D01*
X006736Y008483D01*
X006750Y008473D01*
X006766Y008466D01*
X006783Y008462D01*
X006800Y008460D01*
X007400Y008460D01*
X007417Y008462D01*
X007434Y008466D01*
X007450Y008473D01*
X007464Y008483D01*
X007477Y008496D01*
X007487Y008510D01*
X007494Y008526D01*
X007498Y008543D01*
X007500Y008560D01*
X007500Y009240D01*
X007498Y009257D01*
X007494Y009274D01*
X007487Y009290D01*
X007477Y009304D01*
X007464Y009317D01*
X007450Y009327D01*
X007434Y009334D01*
X007417Y009338D01*
X007400Y009340D01*
X006800Y009340D01*
X006783Y009338D01*
X006766Y009334D01*
X006750Y009327D01*
X006736Y009317D01*
X006723Y009304D01*
X006713Y009290D01*
X006706Y009274D01*
X006702Y009257D01*
X006700Y009240D01*
X006960Y010230D02*
X006960Y010570D01*
X007240Y010570D02*
X007240Y010230D01*
X007700Y009490D02*
X007700Y008810D01*
X007702Y008793D01*
X007706Y008776D01*
X007713Y008760D01*
X007723Y008746D01*
X007736Y008733D01*
X007750Y008723D01*
X007766Y008716D01*
X007783Y008712D01*
X007800Y008710D01*
X008400Y008710D01*
X008417Y008712D01*
X008434Y008716D01*
X008450Y008723D01*
X008464Y008733D01*
X008477Y008746D01*
X008487Y008760D01*
X008494Y008776D01*
X008498Y008793D01*
X008500Y008810D01*
X008500Y009490D01*
X008498Y009507D01*
X008494Y009524D01*
X008487Y009540D01*
X008477Y009554D01*
X008464Y009567D01*
X008450Y009577D01*
X008434Y009584D01*
X008417Y009588D01*
X008400Y009590D01*
X007800Y009590D01*
X007783Y009588D01*
X007766Y009584D01*
X007750Y009577D01*
X007736Y009567D01*
X007723Y009554D01*
X007713Y009540D01*
X007706Y009524D01*
X007702Y009507D01*
X007700Y009490D01*
X007800Y008590D02*
X008400Y008590D01*
X008417Y008588D01*
X008434Y008584D01*
X008450Y008577D01*
X008464Y008567D01*
X008477Y008554D01*
X008487Y008540D01*
X008494Y008524D01*
X008498Y008507D01*
X008500Y008490D01*
X008500Y007810D01*
X008498Y007793D01*
X008494Y007776D01*
X008487Y007760D01*
X008477Y007746D01*
X008464Y007733D01*
X008450Y007723D01*
X008434Y007716D01*
X008417Y007712D01*
X008400Y007710D01*
X007800Y007710D01*
X007783Y007712D01*
X007766Y007716D01*
X007750Y007723D01*
X007736Y007733D01*
X007723Y007746D01*
X007713Y007760D01*
X007706Y007776D01*
X007702Y007793D01*
X007700Y007810D01*
X007700Y008490D01*
X007702Y008507D01*
X007706Y008524D01*
X007713Y008540D01*
X007723Y008554D01*
X007736Y008567D01*
X007750Y008577D01*
X007766Y008584D01*
X007783Y008588D01*
X007800Y008590D01*
X007240Y011480D02*
X007240Y011820D01*
X006960Y011820D02*
X006960Y011480D01*
X002895Y012260D02*
X002555Y012260D01*
X002555Y012540D02*
X002895Y012540D01*
D18*
X003225Y018275D03*
X002225Y018275D03*
X001225Y018275D03*
X004225Y018275D03*
X003725Y001250D03*
X004725Y001250D03*
X005725Y001250D03*
X006725Y001250D03*
X007725Y001250D03*
X002725Y001250D03*
X001725Y001250D03*
D19*
X005850Y014098D03*
X006850Y014098D03*
X007850Y014098D03*
X007850Y016952D03*
X006850Y016952D03*
X005850Y016952D03*
D20*
X005850Y015033D03*
X006850Y015033D03*
X007850Y015033D03*
D21*
X007850Y013763D03*
X006850Y013763D03*
X005850Y013763D03*
X005850Y017287D03*
X006850Y017287D03*
X007850Y017287D03*
D22*
X003496Y011714D03*
X003240Y011714D03*
X002984Y011714D03*
X002728Y011714D03*
X002472Y011714D03*
X002216Y011714D03*
X001960Y011714D03*
X001704Y011714D03*
X001704Y009586D03*
X001960Y009586D03*
X002216Y009586D03*
X002472Y009586D03*
X002728Y009586D03*
X002984Y009586D03*
X003240Y009586D03*
X003496Y009586D03*
D23*
X007106Y012519D03*
X007106Y012775D03*
X007106Y013031D03*
X007844Y013031D03*
X007844Y012519D03*
D24*
X007375Y013000D03*
D25*
X002953Y013277D03*
X002493Y013277D03*
X001707Y013273D03*
X001247Y013273D03*
X001747Y015523D03*
X001747Y016398D03*
X002207Y016398D03*
X002207Y015523D03*
D26*
X002475Y012400D03*
X002975Y012400D03*
X004154Y011900D03*
X004654Y011900D03*
X005475Y011900D03*
X005975Y011900D03*
X005975Y009900D03*
X005475Y009900D03*
X004671Y009900D03*
X004171Y009900D03*
X001725Y012400D03*
X001225Y012400D03*
X001100Y006275D03*
X001100Y005400D03*
X001100Y004525D03*
X001600Y004525D03*
X001600Y005400D03*
X001600Y006275D03*
D27*
X002600Y004025D03*
X002600Y003525D03*
X003475Y003525D03*
X003475Y004025D03*
X004350Y004025D03*
X004350Y003525D03*
X005225Y003525D03*
X005225Y004025D03*
X004600Y005650D03*
X004600Y006150D03*
X004600Y006900D03*
X004600Y007400D03*
X003725Y007400D03*
X003725Y006900D03*
X002850Y006900D03*
X002850Y007400D03*
X001100Y008650D03*
X001100Y009150D03*
X007100Y010150D03*
X007100Y010650D03*
X007100Y011400D03*
X007100Y011900D03*
M02*
