G75*
%MOIN*%
%OFA0B0*%
%FSLAX25Y25*%
%IPPOS*%
%LPD*%
%AMOC8*
5,1,8,0,0,1.08239X$1,22.5*
%
%ADD10C,0.07400*%
%ADD11C,0.03150*%
%ADD12C,0.01600*%
%ADD13OC8,0.02559*%
%ADD14OC8,0.03543*%
%ADD15C,0.03543*%
%ADD16C,0.01000*%
%ADD17C,0.01200*%
D10*
X0017250Y0012500D03*
X0027250Y0012500D03*
X0037250Y0012500D03*
X0047250Y0012500D03*
X0057250Y0012500D03*
X0067250Y0012500D03*
X0077250Y0012500D03*
X0042250Y0182750D03*
X0032250Y0182750D03*
X0022250Y0182750D03*
X0012250Y0182750D03*
D11*
X0017638Y0144000D03*
X0022362Y0144000D03*
D12*
X0002981Y0042795D02*
X0003500Y0010000D01*
X0012776Y0010000D01*
X0012159Y0011487D01*
X0012159Y0013513D01*
X0012934Y0015384D01*
X0014366Y0016816D01*
X0015359Y0017227D01*
X0015359Y0022033D01*
X0040217Y0046891D01*
X0045217Y0046891D01*
X0054109Y0055783D01*
X0054109Y0058114D01*
X0053330Y0058894D01*
X0053330Y0061106D01*
X0054894Y0062670D01*
X0057106Y0062670D01*
X0058670Y0061106D01*
X0058670Y0058894D01*
X0057891Y0058114D01*
X0057891Y0054217D01*
X0056783Y0053109D01*
X0046783Y0043109D01*
X0041783Y0043109D01*
X0019141Y0020467D01*
X0019141Y0017227D01*
X0020134Y0016816D01*
X0021566Y0015384D01*
X0022250Y0013731D01*
X0022934Y0015384D01*
X0024366Y0016816D01*
X0026237Y0017591D01*
X0028263Y0017591D01*
X0030134Y0016816D01*
X0031566Y0015384D01*
X0032250Y0013731D01*
X0032934Y0015384D01*
X0034366Y0016816D01*
X0036237Y0017591D01*
X0038263Y0017591D01*
X0040134Y0016816D01*
X0041566Y0015384D01*
X0042250Y0013731D01*
X0042934Y0015384D01*
X0044366Y0016816D01*
X0045359Y0017227D01*
X0045359Y0023533D01*
X0060609Y0038783D01*
X0060609Y0063114D01*
X0059830Y0063894D01*
X0059830Y0064054D01*
X0058606Y0062830D01*
X0056394Y0062830D01*
X0054830Y0064394D01*
X0054830Y0066606D01*
X0056394Y0068170D01*
X0056904Y0068170D01*
X0058309Y0069810D01*
X0058309Y0069907D01*
X0058892Y0070489D01*
X0059427Y0071114D01*
X0059524Y0071122D01*
X0059593Y0071191D01*
X0060416Y0071191D01*
X0061237Y0071254D01*
X0061310Y0071191D01*
X0064907Y0071191D01*
X0068809Y0067288D01*
X0068809Y0078914D01*
X0068330Y0079394D01*
X0068330Y0081606D01*
X0069894Y0083170D01*
X0072106Y0083170D01*
X0073670Y0081606D01*
X0073670Y0079394D01*
X0073191Y0078914D01*
X0073191Y0066407D01*
X0073928Y0065670D01*
X0074606Y0065670D01*
X0076170Y0064106D01*
X0076170Y0061894D01*
X0074606Y0060330D01*
X0072394Y0060330D01*
X0071691Y0061033D01*
X0071691Y0058691D01*
X0075093Y0058691D01*
X0079694Y0063292D01*
X0079694Y0089000D01*
X0059123Y0089000D01*
X0049483Y0079359D01*
X0047834Y0079359D01*
X0044914Y0079359D01*
X0044914Y0077355D01*
X0043350Y0075791D01*
X0043106Y0075791D01*
X0043068Y0075753D01*
X0039325Y0072009D01*
X0026133Y0072009D01*
X0026420Y0071722D01*
X0026420Y0069510D01*
X0025741Y0068830D01*
X0025741Y0066831D01*
X0026021Y0066550D01*
X0026021Y0048307D01*
X0024069Y0046355D01*
X0024069Y0045394D01*
X0022505Y0043830D01*
X0022021Y0043830D01*
X0022021Y0043107D01*
X0019590Y0040675D01*
X0018424Y0039509D01*
X0010175Y0039509D01*
X0005175Y0044509D01*
X0004009Y0045675D01*
X0004009Y0089000D01*
X0002981Y0089000D01*
X0002981Y0042795D01*
X0002981Y0043266D02*
X0006419Y0043266D01*
X0004821Y0044864D02*
X0002981Y0044864D01*
X0002981Y0046463D02*
X0004009Y0046463D01*
X0004009Y0048061D02*
X0002981Y0048061D01*
X0002981Y0049660D02*
X0004009Y0049660D01*
X0004009Y0051258D02*
X0002981Y0051258D01*
X0002981Y0052857D02*
X0004009Y0052857D01*
X0004009Y0054455D02*
X0002981Y0054455D01*
X0002981Y0056054D02*
X0004009Y0056054D01*
X0004009Y0057652D02*
X0002981Y0057652D01*
X0002981Y0059251D02*
X0004009Y0059251D01*
X0004009Y0060849D02*
X0002981Y0060849D01*
X0002981Y0062448D02*
X0004009Y0062448D01*
X0004009Y0064046D02*
X0002981Y0064046D01*
X0002981Y0065645D02*
X0004009Y0065645D01*
X0004009Y0067243D02*
X0002981Y0067243D01*
X0002981Y0068842D02*
X0004009Y0068842D01*
X0004009Y0070440D02*
X0002981Y0070440D01*
X0002981Y0072039D02*
X0004009Y0072039D01*
X0004009Y0073637D02*
X0002981Y0073637D01*
X0002981Y0075236D02*
X0004009Y0075236D01*
X0004009Y0076834D02*
X0002981Y0076834D01*
X0002981Y0078433D02*
X0004009Y0078433D01*
X0004009Y0080032D02*
X0002981Y0080032D01*
X0002981Y0081630D02*
X0004009Y0081630D01*
X0004009Y0083229D02*
X0002981Y0083229D01*
X0002981Y0084827D02*
X0004009Y0084827D01*
X0004009Y0086426D02*
X0002981Y0086426D01*
X0002981Y0088024D02*
X0004009Y0088024D01*
X0007991Y0088024D02*
X0015959Y0088024D01*
X0016935Y0089000D02*
X0008925Y0080991D01*
X0007991Y0080056D01*
X0007991Y0089000D01*
X0016935Y0089000D01*
X0018745Y0085180D02*
X0018745Y0083229D01*
X0019912Y0082063D01*
X0020438Y0081537D01*
X0020438Y0081537D01*
X0020955Y0081019D01*
X0020955Y0080644D01*
X0021634Y0079964D01*
X0021634Y0079950D01*
X0014009Y0072325D01*
X0014009Y0070675D01*
X0014009Y0068924D01*
X0014009Y0068402D01*
X0012671Y0069741D01*
X0011741Y0069741D01*
X0011741Y0078175D01*
X0018745Y0085180D01*
X0018745Y0084827D02*
X0018392Y0084827D01*
X0018746Y0083229D02*
X0016794Y0083229D01*
X0015195Y0081630D02*
X0020344Y0081630D01*
X0021567Y0080032D02*
X0013597Y0080032D01*
X0011998Y0078433D02*
X0020118Y0078433D01*
X0018519Y0076834D02*
X0011741Y0076834D01*
X0011741Y0075236D02*
X0016921Y0075236D01*
X0015322Y0073637D02*
X0011741Y0073637D01*
X0011741Y0072039D02*
X0014009Y0072039D01*
X0014009Y0070440D02*
X0011741Y0070440D01*
X0013570Y0068842D02*
X0014009Y0068842D01*
X0012735Y0064046D02*
X0007991Y0064046D01*
X0008644Y0065080D02*
X0007991Y0065733D01*
X0007991Y0047325D01*
X0011825Y0043491D01*
X0014830Y0043491D01*
X0014176Y0044144D01*
X0014176Y0046356D01*
X0014856Y0047035D01*
X0014856Y0049071D01*
X0017115Y0051330D01*
X0015740Y0051330D01*
X0014176Y0052894D01*
X0014176Y0055106D01*
X0014856Y0055785D01*
X0014856Y0059071D01*
X0015865Y0060080D01*
X0015740Y0060080D01*
X0014176Y0061644D01*
X0014176Y0062605D01*
X0011279Y0065503D01*
X0010856Y0065080D01*
X0008644Y0065080D01*
X0008079Y0065645D02*
X0007991Y0065645D01*
X0007991Y0062448D02*
X0014176Y0062448D01*
X0014971Y0060849D02*
X0007991Y0060849D01*
X0007991Y0059251D02*
X0015036Y0059251D01*
X0014856Y0057652D02*
X0007991Y0057652D01*
X0007991Y0056054D02*
X0014856Y0056054D01*
X0014176Y0054455D02*
X0007991Y0054455D01*
X0007991Y0052857D02*
X0014214Y0052857D01*
X0015444Y0049660D02*
X0007991Y0049660D01*
X0007991Y0051258D02*
X0017043Y0051258D01*
X0014856Y0048061D02*
X0007991Y0048061D01*
X0008852Y0046463D02*
X0014283Y0046463D01*
X0014176Y0044864D02*
X0010451Y0044864D01*
X0009616Y0040069D02*
X0003024Y0040069D01*
X0002999Y0041667D02*
X0008018Y0041667D01*
X0003050Y0038470D02*
X0031797Y0038470D01*
X0033395Y0040069D02*
X0018983Y0040069D01*
X0020582Y0041667D02*
X0034994Y0041667D01*
X0036592Y0043266D02*
X0022021Y0043266D01*
X0023540Y0044864D02*
X0038191Y0044864D01*
X0039789Y0046463D02*
X0024177Y0046463D01*
X0025776Y0048061D02*
X0046388Y0048061D01*
X0047986Y0049660D02*
X0026021Y0049660D01*
X0026021Y0051258D02*
X0049585Y0051258D01*
X0051183Y0052857D02*
X0026021Y0052857D01*
X0026021Y0054455D02*
X0052782Y0054455D01*
X0054109Y0056054D02*
X0026021Y0056054D01*
X0026021Y0057652D02*
X0054109Y0057652D01*
X0053330Y0059251D02*
X0026021Y0059251D01*
X0026021Y0060849D02*
X0053330Y0060849D01*
X0054672Y0062448D02*
X0026021Y0062448D01*
X0026021Y0064046D02*
X0055178Y0064046D01*
X0054830Y0065645D02*
X0026021Y0065645D01*
X0025741Y0067243D02*
X0055467Y0067243D01*
X0057479Y0068842D02*
X0025753Y0068842D01*
X0026420Y0070440D02*
X0058843Y0070440D01*
X0060500Y0069000D02*
X0057500Y0065500D01*
X0057328Y0062448D02*
X0060609Y0062448D01*
X0060609Y0060849D02*
X0058670Y0060849D01*
X0058670Y0059251D02*
X0060609Y0059251D01*
X0060609Y0057652D02*
X0057891Y0057652D01*
X0057891Y0056054D02*
X0060609Y0056054D01*
X0060609Y0054455D02*
X0057891Y0054455D01*
X0056530Y0052857D02*
X0060609Y0052857D01*
X0060609Y0051258D02*
X0054932Y0051258D01*
X0053333Y0049660D02*
X0060609Y0049660D01*
X0060609Y0048061D02*
X0051735Y0048061D01*
X0050136Y0046463D02*
X0060609Y0046463D01*
X0060609Y0044864D02*
X0048538Y0044864D01*
X0046939Y0043266D02*
X0060609Y0043266D01*
X0060609Y0041667D02*
X0040341Y0041667D01*
X0038742Y0040069D02*
X0060609Y0040069D01*
X0060297Y0038470D02*
X0037144Y0038470D01*
X0035545Y0036872D02*
X0058698Y0036872D01*
X0057100Y0035273D02*
X0033947Y0035273D01*
X0032348Y0033675D02*
X0055501Y0033675D01*
X0053903Y0032076D02*
X0030750Y0032076D01*
X0029151Y0030478D02*
X0052304Y0030478D01*
X0050706Y0028879D02*
X0027553Y0028879D01*
X0025954Y0027281D02*
X0049107Y0027281D01*
X0047509Y0025682D02*
X0024356Y0025682D01*
X0022757Y0024084D02*
X0045910Y0024084D01*
X0045359Y0022485D02*
X0021159Y0022485D01*
X0019560Y0020887D02*
X0045359Y0020887D01*
X0045359Y0019288D02*
X0019141Y0019288D01*
X0019141Y0017690D02*
X0045359Y0017690D01*
X0043642Y0016091D02*
X0040858Y0016091D01*
X0041935Y0014493D02*
X0042565Y0014493D01*
X0042250Y0011269D02*
X0041724Y0010000D01*
X0042776Y0010000D01*
X0042250Y0011269D01*
X0049141Y0017227D02*
X0049141Y0021967D01*
X0064391Y0037217D01*
X0064391Y0063114D01*
X0065170Y0063894D01*
X0065170Y0064732D01*
X0067309Y0062593D01*
X0067309Y0029593D01*
X0068593Y0028309D01*
X0075059Y0021843D01*
X0075059Y0017103D01*
X0074366Y0016816D01*
X0072934Y0015384D01*
X0072339Y0013947D01*
X0072150Y0014530D01*
X0071772Y0015271D01*
X0071283Y0015945D01*
X0070695Y0016533D01*
X0070021Y0017022D01*
X0069280Y0017400D01*
X0068488Y0017657D01*
X0067666Y0017787D01*
X0067450Y0017787D01*
X0067450Y0012700D01*
X0067050Y0012700D01*
X0067050Y0017787D01*
X0066834Y0017787D01*
X0066012Y0017657D01*
X0065220Y0017400D01*
X0064479Y0017022D01*
X0063805Y0016533D01*
X0063217Y0015945D01*
X0062728Y0015271D01*
X0062350Y0014530D01*
X0062161Y0013947D01*
X0061566Y0015384D01*
X0060134Y0016816D01*
X0058263Y0017591D01*
X0056237Y0017591D01*
X0054366Y0016816D01*
X0052934Y0015384D01*
X0052250Y0013731D01*
X0051566Y0015384D01*
X0050134Y0016816D01*
X0049141Y0017227D01*
X0049141Y0017690D02*
X0066216Y0017690D01*
X0067050Y0017690D02*
X0067450Y0017690D01*
X0068284Y0017690D02*
X0075059Y0017690D01*
X0075059Y0019288D02*
X0049141Y0019288D01*
X0049141Y0020887D02*
X0075059Y0020887D01*
X0074417Y0022485D02*
X0049659Y0022485D01*
X0051257Y0024084D02*
X0072818Y0024084D01*
X0071220Y0025682D02*
X0052856Y0025682D01*
X0054454Y0027281D02*
X0069621Y0027281D01*
X0068593Y0028309D02*
X0068593Y0028309D01*
X0068023Y0028879D02*
X0056053Y0028879D01*
X0057651Y0030478D02*
X0067309Y0030478D01*
X0067309Y0032076D02*
X0059250Y0032076D01*
X0060848Y0033675D02*
X0067309Y0033675D01*
X0067309Y0035273D02*
X0062447Y0035273D01*
X0064045Y0036872D02*
X0067309Y0036872D01*
X0067309Y0038470D02*
X0064391Y0038470D01*
X0064391Y0040069D02*
X0067309Y0040069D01*
X0067309Y0041667D02*
X0064391Y0041667D01*
X0064391Y0043266D02*
X0067309Y0043266D01*
X0067309Y0044864D02*
X0064391Y0044864D01*
X0064391Y0046463D02*
X0067309Y0046463D01*
X0067309Y0048061D02*
X0064391Y0048061D01*
X0064391Y0049660D02*
X0067309Y0049660D01*
X0067309Y0051258D02*
X0064391Y0051258D01*
X0064391Y0052857D02*
X0067309Y0052857D01*
X0067309Y0054455D02*
X0064391Y0054455D01*
X0064391Y0056054D02*
X0067309Y0056054D01*
X0067309Y0057652D02*
X0064391Y0057652D01*
X0064391Y0059251D02*
X0067309Y0059251D01*
X0067309Y0060849D02*
X0064391Y0060849D01*
X0064391Y0062448D02*
X0067309Y0062448D01*
X0065856Y0064046D02*
X0065170Y0064046D01*
X0069500Y0063500D02*
X0064000Y0069000D01*
X0060500Y0069000D01*
X0059830Y0064046D02*
X0059822Y0064046D01*
X0065657Y0070440D02*
X0068809Y0070440D01*
X0068809Y0068842D02*
X0067256Y0068842D01*
X0068809Y0072039D02*
X0039354Y0072039D01*
X0040953Y0073637D02*
X0068809Y0073637D01*
X0068809Y0075236D02*
X0042551Y0075236D01*
X0044393Y0076834D02*
X0068809Y0076834D01*
X0068809Y0078433D02*
X0044914Y0078433D01*
X0047834Y0083341D02*
X0052003Y0087509D01*
X0047653Y0087509D01*
X0044653Y0084509D01*
X0041017Y0084509D01*
X0041170Y0084356D01*
X0041170Y0083395D01*
X0041225Y0083341D01*
X0047834Y0083341D01*
X0046569Y0086426D02*
X0050919Y0086426D01*
X0049320Y0084827D02*
X0044971Y0084827D01*
X0050155Y0080032D02*
X0068330Y0080032D01*
X0068354Y0081630D02*
X0051753Y0081630D01*
X0053352Y0083229D02*
X0079694Y0083229D01*
X0079694Y0084827D02*
X0054950Y0084827D01*
X0056549Y0086426D02*
X0079694Y0086426D01*
X0079694Y0088024D02*
X0058147Y0088024D01*
X0069500Y0063500D02*
X0069500Y0056500D01*
X0076000Y0056500D01*
X0081884Y0062384D01*
X0081884Y0139723D01*
X0081000Y0140607D01*
X0081000Y0176500D01*
X0076000Y0181500D01*
X0061000Y0181500D01*
X0084075Y0089000D02*
X0087769Y0089000D01*
X0087769Y0010000D01*
X0081724Y0010000D01*
X0082341Y0011487D01*
X0082341Y0013513D01*
X0081566Y0015384D01*
X0080134Y0016816D01*
X0079441Y0017103D01*
X0079441Y0023657D01*
X0071691Y0031407D01*
X0071691Y0054309D01*
X0076907Y0054309D01*
X0078191Y0055593D01*
X0082792Y0060194D01*
X0084075Y0061477D01*
X0084075Y0089000D01*
X0084075Y0088024D02*
X0087769Y0088024D01*
X0087769Y0086426D02*
X0084075Y0086426D01*
X0084075Y0084827D02*
X0087769Y0084827D01*
X0087769Y0083229D02*
X0084075Y0083229D01*
X0084075Y0081630D02*
X0087769Y0081630D01*
X0087769Y0080032D02*
X0084075Y0080032D01*
X0084075Y0078433D02*
X0087769Y0078433D01*
X0087769Y0076834D02*
X0084075Y0076834D01*
X0084075Y0075236D02*
X0087769Y0075236D01*
X0087769Y0073637D02*
X0084075Y0073637D01*
X0084075Y0072039D02*
X0087769Y0072039D01*
X0087769Y0070440D02*
X0084075Y0070440D01*
X0084075Y0068842D02*
X0087769Y0068842D01*
X0087769Y0067243D02*
X0084075Y0067243D01*
X0084075Y0065645D02*
X0087769Y0065645D01*
X0087769Y0064046D02*
X0084075Y0064046D01*
X0084075Y0062448D02*
X0087769Y0062448D01*
X0087769Y0060849D02*
X0083447Y0060849D01*
X0081849Y0059251D02*
X0087769Y0059251D01*
X0087769Y0057652D02*
X0080250Y0057652D01*
X0078652Y0056054D02*
X0087769Y0056054D01*
X0087769Y0054455D02*
X0077053Y0054455D01*
X0075653Y0059251D02*
X0071691Y0059251D01*
X0071691Y0060849D02*
X0071875Y0060849D01*
X0073500Y0063000D02*
X0071000Y0065500D01*
X0071000Y0080500D01*
X0073191Y0078433D02*
X0079694Y0078433D01*
X0079694Y0076834D02*
X0073191Y0076834D01*
X0073191Y0075236D02*
X0079694Y0075236D01*
X0079694Y0073637D02*
X0073191Y0073637D01*
X0073191Y0072039D02*
X0079694Y0072039D01*
X0079694Y0070440D02*
X0073191Y0070440D01*
X0073191Y0068842D02*
X0079694Y0068842D01*
X0079694Y0067243D02*
X0073191Y0067243D01*
X0074631Y0065645D02*
X0079694Y0065645D01*
X0079694Y0064046D02*
X0076170Y0064046D01*
X0076170Y0062448D02*
X0078850Y0062448D01*
X0077251Y0060849D02*
X0075125Y0060849D01*
X0071691Y0052857D02*
X0087769Y0052857D01*
X0087769Y0051258D02*
X0071691Y0051258D01*
X0071691Y0049660D02*
X0087769Y0049660D01*
X0087769Y0048061D02*
X0071691Y0048061D01*
X0071691Y0046463D02*
X0087769Y0046463D01*
X0087769Y0044864D02*
X0071691Y0044864D01*
X0071691Y0043266D02*
X0087769Y0043266D01*
X0087769Y0041667D02*
X0071691Y0041667D01*
X0071691Y0040069D02*
X0087769Y0040069D01*
X0087769Y0038470D02*
X0071691Y0038470D01*
X0071691Y0036872D02*
X0087769Y0036872D01*
X0087769Y0035273D02*
X0071691Y0035273D01*
X0071691Y0033675D02*
X0087769Y0033675D01*
X0087769Y0032076D02*
X0071691Y0032076D01*
X0072620Y0030478D02*
X0087769Y0030478D01*
X0087769Y0028879D02*
X0074219Y0028879D01*
X0075817Y0027281D02*
X0087769Y0027281D01*
X0087769Y0025682D02*
X0077416Y0025682D01*
X0077250Y0022750D02*
X0069500Y0030500D01*
X0069500Y0056500D01*
X0073670Y0080032D02*
X0079694Y0080032D01*
X0079694Y0081630D02*
X0073646Y0081630D01*
X0079014Y0024084D02*
X0087769Y0024084D01*
X0087769Y0022485D02*
X0079441Y0022485D01*
X0079441Y0020887D02*
X0087769Y0020887D01*
X0087769Y0019288D02*
X0079441Y0019288D01*
X0079441Y0017690D02*
X0087769Y0017690D01*
X0087769Y0016091D02*
X0080858Y0016091D01*
X0081935Y0014493D02*
X0087769Y0014493D01*
X0087769Y0012894D02*
X0082341Y0012894D01*
X0082261Y0011296D02*
X0087769Y0011296D01*
X0077250Y0012500D02*
X0077250Y0022750D01*
X0073642Y0016091D02*
X0071136Y0016091D01*
X0072162Y0014493D02*
X0072565Y0014493D01*
X0072339Y0011053D02*
X0072776Y0010000D01*
X0071910Y0010000D01*
X0072150Y0010470D01*
X0072339Y0011053D01*
X0067450Y0012894D02*
X0067050Y0012894D01*
X0067050Y0014493D02*
X0067450Y0014493D01*
X0067450Y0016091D02*
X0067050Y0016091D01*
X0063364Y0016091D02*
X0060858Y0016091D01*
X0061935Y0014493D02*
X0062338Y0014493D01*
X0062161Y0011053D02*
X0062350Y0010470D01*
X0062590Y0010000D01*
X0061724Y0010000D01*
X0062161Y0011053D01*
X0053642Y0016091D02*
X0050858Y0016091D01*
X0051935Y0014493D02*
X0052565Y0014493D01*
X0052250Y0011269D02*
X0051724Y0010000D01*
X0052776Y0010000D01*
X0052250Y0011269D01*
X0033642Y0016091D02*
X0030858Y0016091D01*
X0031935Y0014493D02*
X0032565Y0014493D01*
X0032250Y0011269D02*
X0032776Y0010000D01*
X0031724Y0010000D01*
X0032250Y0011269D01*
X0023642Y0016091D02*
X0020858Y0016091D01*
X0021935Y0014493D02*
X0022565Y0014493D01*
X0022250Y0011269D02*
X0022776Y0010000D01*
X0021724Y0010000D01*
X0022250Y0011269D01*
X0015811Y0022485D02*
X0003302Y0022485D01*
X0003328Y0020887D02*
X0015359Y0020887D01*
X0015359Y0019288D02*
X0003353Y0019288D01*
X0003378Y0017690D02*
X0015359Y0017690D01*
X0013642Y0016091D02*
X0003404Y0016091D01*
X0003429Y0014493D02*
X0012565Y0014493D01*
X0012159Y0012894D02*
X0003454Y0012894D01*
X0003480Y0011296D02*
X0012239Y0011296D01*
X0017410Y0024084D02*
X0003277Y0024084D01*
X0003252Y0025682D02*
X0019009Y0025682D01*
X0020607Y0027281D02*
X0003227Y0027281D01*
X0003201Y0028879D02*
X0022206Y0028879D01*
X0023804Y0030478D02*
X0003176Y0030478D01*
X0003151Y0032076D02*
X0025403Y0032076D01*
X0027001Y0033675D02*
X0003125Y0033675D01*
X0003100Y0035273D02*
X0028600Y0035273D01*
X0030198Y0036872D02*
X0003075Y0036872D01*
X0018509Y0068405D02*
X0018509Y0071194D01*
X0017991Y0070675D01*
X0017991Y0068924D01*
X0018509Y0068405D01*
X0018509Y0068842D02*
X0018073Y0068842D01*
X0017991Y0070440D02*
X0018509Y0070440D01*
X0023306Y0075991D02*
X0024450Y0077134D01*
X0025616Y0078300D01*
X0025616Y0079964D01*
X0026295Y0080644D01*
X0026295Y0082856D01*
X0025651Y0083500D01*
X0026295Y0084144D01*
X0026295Y0085155D01*
X0027597Y0086509D01*
X0031694Y0086509D01*
X0028855Y0083670D01*
X0027894Y0083670D01*
X0026330Y0082106D01*
X0026330Y0079894D01*
X0027894Y0078330D01*
X0030106Y0078330D01*
X0031670Y0079894D01*
X0031670Y0080855D01*
X0035325Y0084509D01*
X0035983Y0084509D01*
X0035830Y0084356D01*
X0035830Y0082144D01*
X0037394Y0080580D01*
X0038355Y0080580D01*
X0038409Y0080525D01*
X0039574Y0079361D01*
X0039574Y0077889D01*
X0037675Y0075991D01*
X0023306Y0075991D01*
X0024150Y0076834D02*
X0038519Y0076834D01*
X0039574Y0078433D02*
X0030209Y0078433D01*
X0031670Y0080032D02*
X0038903Y0080032D01*
X0036344Y0081630D02*
X0032445Y0081630D01*
X0034044Y0083229D02*
X0035830Y0083229D01*
X0031611Y0086426D02*
X0027517Y0086426D01*
X0026295Y0084827D02*
X0030012Y0084827D01*
X0027452Y0083229D02*
X0025922Y0083229D01*
X0026295Y0081630D02*
X0026330Y0081630D01*
X0026330Y0080032D02*
X0025683Y0080032D01*
X0025616Y0078433D02*
X0027791Y0078433D01*
X0020040Y0058625D02*
X0018837Y0057422D01*
X0018837Y0055785D01*
X0019517Y0055106D01*
X0019517Y0053732D01*
X0020040Y0054256D01*
X0020040Y0058625D01*
X0020040Y0057652D02*
X0019067Y0057652D01*
X0018837Y0056054D02*
X0020040Y0056054D01*
X0020040Y0054455D02*
X0019517Y0054455D01*
X0022040Y0050625D02*
X0022040Y0049956D01*
X0021254Y0049170D01*
X0020585Y0049170D01*
X0022040Y0050625D01*
X0021744Y0049660D02*
X0021075Y0049660D01*
X0009565Y0081630D02*
X0007991Y0081630D01*
X0007991Y0083229D02*
X0011163Y0083229D01*
X0012762Y0084827D02*
X0007991Y0084827D01*
X0007991Y0086426D02*
X0014361Y0086426D01*
D13*
X0022787Y0101500D03*
X0027250Y0104000D03*
X0029750Y0100250D03*
X0023625Y0085250D03*
X0023625Y0081750D03*
X0029000Y0081000D03*
X0023750Y0070616D03*
X0016846Y0062750D03*
X0016846Y0054000D03*
X0016846Y0045250D03*
X0021399Y0046500D03*
X0009750Y0067750D03*
X0014500Y0113500D03*
X0037250Y0105250D03*
X0043500Y0094000D03*
X0047250Y0084750D03*
X0042244Y0078461D03*
X0038500Y0083250D03*
X0056000Y0060000D03*
X0057500Y0065500D03*
X0062500Y0065000D03*
X0071000Y0080500D03*
X0076500Y0086500D03*
X0073500Y0063000D03*
X0063500Y0109000D03*
X0058500Y0138321D03*
X0068500Y0138321D03*
X0078500Y0138321D03*
X0047627Y0124873D03*
D14*
X0032990Y0131750D03*
X0025510Y0131750D03*
X0010000Y0152250D03*
X0016000Y0031500D03*
D15*
X0031000Y0054000D03*
X0061000Y0181500D03*
D16*
X0046000Y0167859D02*
X0046000Y0139000D01*
X0048000Y0136500D01*
X0049309Y0136500D01*
X0049309Y0126542D01*
X0048608Y0127243D01*
X0046645Y0127243D01*
X0045965Y0126564D01*
X0045460Y0126564D01*
X0039146Y0120250D01*
X0023641Y0120250D01*
X0026210Y0122819D01*
X0027200Y0123810D01*
X0027200Y0129393D01*
X0028372Y0130564D01*
X0028372Y0132936D01*
X0026695Y0134612D01*
X0024324Y0134612D01*
X0022648Y0132936D01*
X0022648Y0130564D01*
X0023819Y0129393D01*
X0023819Y0125210D01*
X0018859Y0120250D01*
X0007250Y0120250D01*
X0007250Y0177750D01*
X0024859Y0177750D01*
X0027800Y0174809D01*
X0039050Y0174809D01*
X0046000Y0167859D01*
X0045600Y0168259D02*
X0007250Y0168259D01*
X0007250Y0169257D02*
X0044602Y0169257D01*
X0046000Y0167260D02*
X0007250Y0167260D01*
X0007250Y0166262D02*
X0046000Y0166262D01*
X0046000Y0165263D02*
X0007250Y0165263D01*
X0007250Y0164265D02*
X0046000Y0164265D01*
X0046000Y0163266D02*
X0007250Y0163266D01*
X0007250Y0162268D02*
X0046000Y0162268D01*
X0046000Y0161269D02*
X0007250Y0161269D01*
X0007250Y0160271D02*
X0046000Y0160271D01*
X0046000Y0159272D02*
X0007250Y0159272D01*
X0007250Y0158274D02*
X0046000Y0158274D01*
X0046000Y0157275D02*
X0007250Y0157275D01*
X0007250Y0156277D02*
X0046000Y0156277D01*
X0046000Y0155278D02*
X0007250Y0155278D01*
X0007250Y0154280D02*
X0046000Y0154280D01*
X0046000Y0153281D02*
X0007250Y0153281D01*
X0007250Y0152283D02*
X0046000Y0152283D01*
X0046000Y0151284D02*
X0007250Y0151284D01*
X0007250Y0150286D02*
X0046000Y0150286D01*
X0046000Y0149287D02*
X0007250Y0149287D01*
X0007250Y0148289D02*
X0046000Y0148289D01*
X0046000Y0147290D02*
X0007250Y0147290D01*
X0007250Y0146292D02*
X0046000Y0146292D01*
X0046000Y0145293D02*
X0007250Y0145293D01*
X0007250Y0144295D02*
X0046000Y0144295D01*
X0046000Y0143296D02*
X0007250Y0143296D01*
X0007250Y0142298D02*
X0046000Y0142298D01*
X0046000Y0141299D02*
X0007250Y0141299D01*
X0007250Y0140301D02*
X0046000Y0140301D01*
X0046000Y0139302D02*
X0007250Y0139302D01*
X0007250Y0138303D02*
X0046557Y0138303D01*
X0047356Y0137305D02*
X0007250Y0137305D01*
X0007250Y0136306D02*
X0049309Y0136306D01*
X0049309Y0135308D02*
X0007250Y0135308D01*
X0007250Y0134309D02*
X0024022Y0134309D01*
X0023023Y0133311D02*
X0007250Y0133311D01*
X0007250Y0132312D02*
X0022648Y0132312D01*
X0022648Y0131314D02*
X0007250Y0131314D01*
X0007250Y0130315D02*
X0022897Y0130315D01*
X0023819Y0129317D02*
X0007250Y0129317D01*
X0007250Y0128318D02*
X0023819Y0128318D01*
X0023819Y0127320D02*
X0007250Y0127320D01*
X0007250Y0126321D02*
X0023819Y0126321D01*
X0023819Y0125323D02*
X0007250Y0125323D01*
X0007250Y0124324D02*
X0022934Y0124324D01*
X0021935Y0123326D02*
X0007250Y0123326D01*
X0007250Y0122327D02*
X0020937Y0122327D01*
X0019938Y0121329D02*
X0007250Y0121329D01*
X0007250Y0120330D02*
X0018939Y0120330D01*
X0023721Y0120330D02*
X0039226Y0120330D01*
X0040225Y0121329D02*
X0024720Y0121329D01*
X0025718Y0122327D02*
X0041223Y0122327D01*
X0042222Y0123326D02*
X0026717Y0123326D01*
X0027200Y0124324D02*
X0043220Y0124324D01*
X0044219Y0125323D02*
X0027200Y0125323D01*
X0027200Y0126321D02*
X0045217Y0126321D01*
X0049309Y0127320D02*
X0027200Y0127320D01*
X0027200Y0128318D02*
X0049309Y0128318D01*
X0049309Y0129317D02*
X0027200Y0129317D01*
X0028123Y0130315D02*
X0049309Y0130315D01*
X0049309Y0131314D02*
X0028372Y0131314D01*
X0028372Y0132312D02*
X0049309Y0132312D01*
X0049309Y0133311D02*
X0027997Y0133311D01*
X0026998Y0134309D02*
X0049309Y0134309D01*
X0043603Y0170256D02*
X0007250Y0170256D01*
X0007250Y0171254D02*
X0042605Y0171254D01*
X0041606Y0172253D02*
X0007250Y0172253D01*
X0007250Y0173251D02*
X0040608Y0173251D01*
X0039609Y0174250D02*
X0007250Y0174250D01*
X0007250Y0175248D02*
X0027361Y0175248D01*
X0026362Y0176247D02*
X0007250Y0176247D01*
X0007250Y0177245D02*
X0025364Y0177245D01*
X0011846Y0151500D02*
X0010000Y0152250D01*
X0021000Y0141500D01*
X0021000Y0136500D02*
X0021666Y0135834D01*
X0056000Y0060000D02*
X0056000Y0055000D01*
X0046000Y0045000D01*
X0041000Y0045000D01*
X0017250Y0021250D01*
X0017250Y0012500D01*
X0047250Y0012500D02*
X0047250Y0022750D01*
X0062500Y0038000D01*
X0062500Y0065000D01*
D17*
X0052750Y0089500D02*
X0068500Y0105250D01*
X0068500Y0138321D01*
X0058500Y0138321D02*
X0058500Y0098078D01*
X0051922Y0091500D01*
X0046000Y0091500D01*
X0043000Y0088500D01*
X0026750Y0088500D01*
X0023625Y0085250D01*
X0023606Y0088139D02*
X0022428Y0088139D01*
X0020736Y0086447D01*
X0020736Y0084053D01*
X0022428Y0082361D01*
X0023014Y0082361D01*
X0023625Y0081750D01*
X0023625Y0079125D01*
X0016000Y0071500D01*
X0016000Y0068100D01*
X0020031Y0064069D01*
X0020031Y0061431D01*
X0016846Y0058247D01*
X0016846Y0054000D01*
X0022031Y0053431D02*
X0016846Y0048247D01*
X0016846Y0045250D01*
X0020031Y0043931D02*
X0017600Y0041500D01*
X0011000Y0041500D01*
X0006000Y0046500D01*
X0006000Y0111500D01*
X0008000Y0113500D01*
X0014500Y0113500D01*
X0025510Y0124510D01*
X0025510Y0131750D01*
X0021000Y0136500D02*
X0021000Y0141500D01*
X0022362Y0140984D02*
X0022362Y0144000D01*
X0022362Y0140984D02*
X0032990Y0131750D01*
X0046160Y0124873D02*
X0028471Y0107184D01*
X0025931Y0107184D01*
X0024000Y0105253D01*
X0024000Y0102713D01*
X0022787Y0101500D01*
X0026000Y0102750D02*
X0026000Y0094250D01*
X0023000Y0091250D01*
X0022000Y0091250D01*
X0009750Y0079000D01*
X0009750Y0067750D01*
X0011846Y0067750D01*
X0016846Y0062750D01*
X0020500Y0066428D02*
X0020500Y0071500D01*
X0023000Y0074000D01*
X0038500Y0074000D01*
X0042244Y0077744D01*
X0042244Y0078461D01*
X0040400Y0081350D02*
X0048658Y0081350D01*
X0078500Y0111192D01*
X0078500Y0138321D01*
X0063500Y0109000D02*
X0063500Y0174250D01*
X0048750Y0189000D01*
X0038500Y0189000D01*
X0032250Y0182750D01*
X0028500Y0176500D02*
X0022250Y0182750D01*
X0028500Y0176500D02*
X0039750Y0176500D01*
X0051000Y0165250D01*
X0051000Y0111500D01*
X0043500Y0104000D01*
X0038500Y0104000D01*
X0037250Y0105250D01*
X0043500Y0094000D02*
X0051000Y0094000D01*
X0054750Y0097750D01*
X0054750Y0170250D01*
X0042250Y0182750D01*
X0046160Y0124873D02*
X0047627Y0124873D01*
X0046828Y0089500D02*
X0052750Y0089500D01*
X0046828Y0089500D02*
X0043828Y0086500D01*
X0034500Y0086500D01*
X0029000Y0081000D01*
X0023606Y0088139D02*
X0024750Y0089328D01*
X0025310Y0089911D01*
X0029750Y0094351D01*
X0029750Y0100250D01*
X0026000Y0102750D02*
X0027250Y0104000D01*
X0038500Y0083250D02*
X0040400Y0081350D01*
X0023750Y0070616D02*
X0023750Y0066006D01*
X0024031Y0065726D01*
X0024031Y0049131D01*
X0021399Y0046500D01*
X0020031Y0045131D01*
X0020031Y0043931D01*
X0022031Y0053431D02*
X0022031Y0064897D01*
X0020500Y0066428D01*
M02*
