G75*
%MOIN*%
%OFA0B0*%
%FSLAX24Y24*%
%IPPOS*%
%LPD*%
%AMOC8*
5,1,8,0,0,1.08239X$1,22.5*
%
%ADD10C,0.0740*%
%ADD11C,0.0160*%
%ADD12C,0.0357*%
%ADD13C,0.0400*%
%ADD14C,0.0100*%
%ADD15C,0.0120*%
D10*
X001725Y001250D03*
X002725Y001250D03*
X003725Y001250D03*
X004725Y001250D03*
X005725Y001250D03*
X006725Y001250D03*
X007725Y001250D03*
X004225Y018275D03*
X003225Y018275D03*
X002225Y018275D03*
X001225Y018275D03*
D11*
X000580Y004359D02*
X000580Y001000D01*
X001255Y001000D01*
X001195Y001145D01*
X001195Y001355D01*
X001276Y001550D01*
X001425Y001699D01*
X001515Y001737D01*
X001515Y002212D01*
X004013Y004710D01*
X004513Y004710D01*
X005390Y005587D01*
X005390Y005701D01*
X005295Y005796D01*
X005240Y005928D01*
X005240Y006072D01*
X005295Y006204D01*
X005396Y006305D01*
X005459Y006331D01*
X005445Y006346D01*
X005390Y006478D01*
X005390Y006622D01*
X005445Y006754D01*
X005546Y006855D01*
X005678Y006910D01*
X005742Y006910D01*
X005843Y007027D01*
X005847Y007036D01*
X005874Y007063D01*
X005899Y007092D01*
X005907Y007097D01*
X005914Y007103D01*
X005950Y007118D01*
X005984Y007136D01*
X005993Y007136D01*
X006002Y007140D01*
X006041Y007140D01*
X006079Y007143D01*
X006088Y007140D01*
X006448Y007140D01*
X006536Y007103D01*
X006860Y006779D01*
X006860Y007781D01*
X006795Y007846D01*
X006740Y007978D01*
X006740Y008122D01*
X006795Y008254D01*
X006896Y008355D01*
X007028Y008410D01*
X007172Y008410D01*
X007304Y008355D01*
X007405Y008254D01*
X007460Y008122D01*
X007460Y007978D01*
X007405Y007846D01*
X007340Y007781D01*
X007340Y006660D01*
X007422Y006660D01*
X007554Y006605D01*
X007655Y006504D01*
X007710Y006372D01*
X007710Y006228D01*
X007655Y006096D01*
X007554Y005995D01*
X007422Y005940D01*
X007278Y005940D01*
X007190Y005977D01*
X007190Y005890D01*
X007501Y005890D01*
X007948Y006338D01*
X007948Y008900D01*
X005942Y008900D01*
X004957Y007915D01*
X004921Y007915D01*
X004887Y007833D01*
X004792Y007738D01*
X004667Y007687D01*
X004533Y007687D01*
X004408Y007738D01*
X004313Y007833D01*
X004262Y007958D01*
X004262Y008092D01*
X004313Y008217D01*
X004408Y008312D01*
X004533Y008363D01*
X004667Y008363D01*
X004688Y008355D01*
X004775Y008355D01*
X005100Y008680D01*
X004766Y008680D01*
X004516Y008430D01*
X003441Y008430D01*
X003438Y008427D01*
X003438Y008333D01*
X003387Y008208D01*
X003292Y008113D01*
X003188Y008070D01*
X003188Y007958D01*
X003137Y007833D01*
X003042Y007738D01*
X002917Y007687D01*
X002823Y007687D01*
X002820Y007684D01*
X002820Y007559D01*
X002691Y007430D01*
X002627Y007365D01*
X002627Y007365D01*
X002588Y007327D01*
X002662Y007253D01*
X002713Y007129D01*
X002713Y006994D01*
X002662Y006870D01*
X002595Y006803D01*
X002595Y006692D01*
X002623Y006664D01*
X002623Y004822D01*
X002478Y004677D01*
X002478Y004583D01*
X002427Y004458D01*
X002332Y004363D01*
X002223Y004318D01*
X002223Y004302D01*
X001980Y004059D01*
X001851Y003930D01*
X001009Y003930D01*
X000580Y004359D01*
X000580Y004296D02*
X000643Y004296D01*
X000580Y004137D02*
X000802Y004137D01*
X000960Y003979D02*
X000580Y003979D01*
X000580Y003820D02*
X003123Y003820D01*
X002965Y003662D02*
X000580Y003662D01*
X000580Y003503D02*
X002806Y003503D01*
X002648Y003345D02*
X000580Y003345D01*
X000580Y003186D02*
X002489Y003186D01*
X002331Y003028D02*
X000580Y003028D01*
X000580Y002869D02*
X002172Y002869D01*
X002014Y002711D02*
X000580Y002711D01*
X000580Y002552D02*
X001855Y002552D01*
X001697Y002394D02*
X000580Y002394D01*
X000580Y002235D02*
X001538Y002235D01*
X001515Y002077D02*
X000580Y002077D01*
X000580Y001918D02*
X001515Y001918D01*
X001515Y001760D02*
X000580Y001760D01*
X000580Y001601D02*
X001326Y001601D01*
X001231Y001443D02*
X000580Y001443D01*
X000580Y001284D02*
X001195Y001284D01*
X001203Y001126D02*
X000580Y001126D01*
X001935Y001737D02*
X001935Y002038D01*
X004187Y004290D01*
X004687Y004290D01*
X005687Y005290D01*
X005810Y005413D01*
X005810Y005701D01*
X005905Y005796D01*
X005960Y005928D01*
X005960Y006072D01*
X005905Y006204D01*
X005891Y006219D01*
X005954Y006245D01*
X005975Y006266D01*
X006040Y006201D01*
X006040Y003887D01*
X004515Y002362D01*
X004515Y002188D01*
X004515Y001737D01*
X004425Y001699D01*
X004276Y001550D01*
X004225Y001428D01*
X004174Y001550D01*
X004025Y001699D01*
X003830Y001780D01*
X003620Y001780D01*
X003425Y001699D01*
X003276Y001550D01*
X003225Y001428D01*
X003174Y001550D01*
X003025Y001699D01*
X002830Y001780D01*
X002620Y001780D01*
X002425Y001699D01*
X002276Y001550D01*
X002225Y001428D01*
X002174Y001550D01*
X002025Y001699D01*
X001935Y001737D01*
X001935Y001760D02*
X002570Y001760D01*
X002326Y001601D02*
X002124Y001601D01*
X002219Y001443D02*
X002231Y001443D01*
X002225Y001072D02*
X002255Y001000D01*
X002195Y001000D01*
X002225Y001072D01*
X001935Y001918D02*
X004515Y001918D01*
X004515Y001760D02*
X003880Y001760D01*
X004124Y001601D02*
X004326Y001601D01*
X004231Y001443D02*
X004219Y001443D01*
X004225Y001072D02*
X004255Y001000D01*
X004195Y001000D01*
X004225Y001072D01*
X004515Y002077D02*
X001973Y002077D01*
X002132Y002235D02*
X004515Y002235D01*
X004547Y002394D02*
X002290Y002394D01*
X002449Y002552D02*
X004705Y002552D01*
X004864Y002711D02*
X002607Y002711D01*
X002766Y002869D02*
X005022Y002869D01*
X005181Y003028D02*
X002924Y003028D01*
X003083Y003186D02*
X005339Y003186D01*
X005498Y003345D02*
X003241Y003345D01*
X003400Y003503D02*
X005656Y003503D01*
X005815Y003662D02*
X003558Y003662D01*
X003717Y003820D02*
X005973Y003820D01*
X006040Y003979D02*
X003875Y003979D01*
X004034Y004137D02*
X006040Y004137D01*
X006040Y004296D02*
X004692Y004296D01*
X004851Y004454D02*
X006040Y004454D01*
X006040Y004613D02*
X005009Y004613D01*
X005168Y004771D02*
X006040Y004771D01*
X006040Y004930D02*
X005326Y004930D01*
X005485Y005088D02*
X006040Y005088D01*
X006040Y005247D02*
X005643Y005247D01*
X005802Y005405D02*
X006040Y005405D01*
X006040Y005564D02*
X005810Y005564D01*
X005831Y005722D02*
X006040Y005722D01*
X006040Y005881D02*
X005940Y005881D01*
X005960Y006039D02*
X006040Y006039D01*
X006040Y006198D02*
X005908Y006198D01*
X005750Y006550D02*
X006050Y006900D01*
X006400Y006900D01*
X006950Y006350D01*
X006950Y005650D01*
X007600Y005650D01*
X008188Y006238D01*
X008188Y013972D01*
X008100Y014061D01*
X008100Y017650D01*
X007600Y018150D01*
X006100Y018150D01*
X008428Y008900D02*
X008495Y008900D01*
X008495Y001000D01*
X008195Y001000D01*
X008255Y001145D01*
X008255Y001355D01*
X008174Y001550D01*
X008025Y001699D01*
X007965Y001724D01*
X007965Y002323D01*
X007928Y002411D01*
X007190Y003149D01*
X007190Y005410D01*
X007648Y005410D01*
X007736Y005447D01*
X007803Y005514D01*
X008324Y006035D01*
X008392Y006102D01*
X008428Y006191D01*
X008428Y008900D01*
X008428Y008892D02*
X008495Y008892D01*
X008495Y008734D02*
X008428Y008734D01*
X008428Y008575D02*
X008495Y008575D01*
X008495Y008417D02*
X008428Y008417D01*
X008428Y008258D02*
X008495Y008258D01*
X008495Y008100D02*
X008428Y008100D01*
X008428Y007941D02*
X008495Y007941D01*
X008495Y007783D02*
X008428Y007783D01*
X008428Y007624D02*
X008495Y007624D01*
X008495Y007466D02*
X008428Y007466D01*
X008428Y007307D02*
X008495Y007307D01*
X008495Y007149D02*
X008428Y007149D01*
X008428Y006990D02*
X008495Y006990D01*
X008495Y006832D02*
X008428Y006832D01*
X008428Y006673D02*
X008495Y006673D01*
X008495Y006515D02*
X008428Y006515D01*
X008428Y006356D02*
X008495Y006356D01*
X008495Y006198D02*
X008428Y006198D01*
X008495Y006039D02*
X008328Y006039D01*
X008170Y005881D02*
X008495Y005881D01*
X008495Y005722D02*
X008011Y005722D01*
X007853Y005564D02*
X008495Y005564D01*
X008495Y005405D02*
X007190Y005405D01*
X007190Y005247D02*
X008495Y005247D01*
X008495Y005088D02*
X007190Y005088D01*
X007190Y004930D02*
X008495Y004930D01*
X008495Y004771D02*
X007190Y004771D01*
X007190Y004613D02*
X008495Y004613D01*
X008495Y004454D02*
X007190Y004454D01*
X007190Y004296D02*
X008495Y004296D01*
X008495Y004137D02*
X007190Y004137D01*
X007190Y003979D02*
X008495Y003979D01*
X008495Y003820D02*
X007190Y003820D01*
X007190Y003662D02*
X008495Y003662D01*
X008495Y003503D02*
X007190Y003503D01*
X007190Y003345D02*
X008495Y003345D01*
X008495Y003186D02*
X007190Y003186D01*
X007312Y003028D02*
X008495Y003028D01*
X008495Y002869D02*
X007470Y002869D01*
X007629Y002711D02*
X008495Y002711D01*
X008495Y002552D02*
X007787Y002552D01*
X007725Y002275D02*
X006950Y003050D01*
X006950Y005650D01*
X006710Y005722D02*
X006460Y005722D01*
X006460Y005564D02*
X006710Y005564D01*
X006710Y005405D02*
X006460Y005405D01*
X006460Y005247D02*
X006710Y005247D01*
X006710Y005088D02*
X006460Y005088D01*
X006460Y004930D02*
X006710Y004930D01*
X006710Y004771D02*
X006460Y004771D01*
X006460Y004613D02*
X006710Y004613D01*
X006710Y004454D02*
X006460Y004454D01*
X006460Y004296D02*
X006710Y004296D01*
X006710Y004137D02*
X006460Y004137D01*
X006460Y003979D02*
X006710Y003979D01*
X006710Y003820D02*
X006460Y003820D01*
X006460Y003713D02*
X006460Y006201D01*
X006555Y006296D01*
X006587Y006373D01*
X006710Y006251D01*
X006710Y003002D01*
X006747Y002914D01*
X006814Y002847D01*
X007485Y002176D01*
X007485Y001724D01*
X007425Y001699D01*
X007276Y001550D01*
X007236Y001456D01*
X007235Y001461D01*
X007195Y001538D01*
X007145Y001608D01*
X007083Y001670D01*
X007013Y001720D01*
X006936Y001760D01*
X006854Y001786D01*
X006768Y001800D01*
X006745Y001800D01*
X006745Y001270D01*
X006705Y001270D01*
X006705Y001800D01*
X006682Y001800D01*
X006596Y001786D01*
X006514Y001760D01*
X006437Y001720D01*
X006367Y001670D01*
X006305Y001608D01*
X006255Y001538D01*
X006215Y001461D01*
X006214Y001456D01*
X006174Y001550D01*
X006025Y001699D01*
X005830Y001780D01*
X005620Y001780D01*
X005425Y001699D01*
X005276Y001550D01*
X005225Y001428D01*
X005174Y001550D01*
X005025Y001699D01*
X004935Y001737D01*
X004935Y002188D01*
X006460Y003713D01*
X006408Y003662D02*
X006710Y003662D01*
X006710Y003503D02*
X006250Y003503D01*
X006091Y003345D02*
X006710Y003345D01*
X006710Y003186D02*
X005933Y003186D01*
X005774Y003028D02*
X006710Y003028D01*
X006792Y002869D02*
X005616Y002869D01*
X005457Y002711D02*
X006950Y002711D01*
X006814Y002847D02*
X006814Y002847D01*
X007109Y002552D02*
X005299Y002552D01*
X005140Y002394D02*
X007267Y002394D01*
X007426Y002235D02*
X004982Y002235D01*
X004935Y002077D02*
X007485Y002077D01*
X007485Y001918D02*
X004935Y001918D01*
X004935Y001760D02*
X005570Y001760D01*
X005326Y001601D02*
X005124Y001601D01*
X005219Y001443D02*
X005231Y001443D01*
X005225Y001072D02*
X005195Y001000D01*
X005255Y001000D01*
X005225Y001072D01*
X005880Y001760D02*
X006513Y001760D01*
X006705Y001760D02*
X006745Y001760D01*
X006745Y001601D02*
X006705Y001601D01*
X006705Y001443D02*
X006745Y001443D01*
X006745Y001284D02*
X006705Y001284D01*
X006937Y001760D02*
X007485Y001760D01*
X007326Y001601D02*
X007150Y001601D01*
X007236Y001044D02*
X007255Y001000D01*
X007215Y001000D01*
X007235Y001039D01*
X007236Y001044D01*
X007725Y001250D02*
X007725Y002275D01*
X007936Y002394D02*
X008495Y002394D01*
X008495Y002235D02*
X007965Y002235D01*
X007965Y002077D02*
X008495Y002077D01*
X008495Y001918D02*
X007965Y001918D01*
X007965Y001760D02*
X008495Y001760D01*
X008495Y001601D02*
X008124Y001601D01*
X008219Y001443D02*
X008495Y001443D01*
X008495Y001284D02*
X008255Y001284D01*
X008247Y001126D02*
X008495Y001126D01*
X006300Y001601D02*
X006124Y001601D01*
X006214Y001044D02*
X006215Y001039D01*
X006235Y001000D01*
X006195Y001000D01*
X006214Y001044D01*
X004574Y004771D02*
X002572Y004771D01*
X002623Y004930D02*
X004733Y004930D01*
X004891Y005088D02*
X002623Y005088D01*
X002623Y005247D02*
X005050Y005247D01*
X005208Y005405D02*
X002623Y005405D01*
X002623Y005564D02*
X005367Y005564D01*
X005369Y005722D02*
X002623Y005722D01*
X002623Y005881D02*
X005260Y005881D01*
X005240Y006039D02*
X002623Y006039D01*
X002623Y006198D02*
X005292Y006198D01*
X005441Y006356D02*
X002623Y006356D01*
X002623Y006515D02*
X005390Y006515D01*
X005411Y006673D02*
X002614Y006673D01*
X002624Y006832D02*
X005522Y006832D01*
X005811Y006990D02*
X002712Y006990D01*
X002705Y007149D02*
X006860Y007149D01*
X006860Y007307D02*
X002608Y007307D01*
X002727Y007466D02*
X006860Y007466D01*
X006860Y007624D02*
X002820Y007624D01*
X003086Y007783D02*
X004364Y007783D01*
X004268Y007941D02*
X003182Y007941D01*
X003259Y008100D02*
X004265Y008100D01*
X004354Y008258D02*
X003407Y008258D01*
X003438Y008417D02*
X004836Y008417D01*
X004995Y008575D02*
X004661Y008575D01*
X004983Y007941D02*
X006755Y007941D01*
X006740Y008100D02*
X005141Y008100D01*
X005300Y008258D02*
X006799Y008258D01*
X006858Y007783D02*
X004836Y007783D01*
X005458Y008417D02*
X007948Y008417D01*
X007948Y008575D02*
X005617Y008575D01*
X005775Y008734D02*
X007948Y008734D01*
X007948Y008892D02*
X005934Y008892D01*
X006649Y006990D02*
X006860Y006990D01*
X006860Y006832D02*
X006808Y006832D01*
X006605Y006356D02*
X006580Y006356D01*
X006460Y006198D02*
X006710Y006198D01*
X006710Y006039D02*
X006460Y006039D01*
X006460Y005881D02*
X006710Y005881D01*
X007350Y006300D02*
X007100Y006550D01*
X007100Y008050D01*
X007342Y007783D02*
X007948Y007783D01*
X007948Y007941D02*
X007445Y007941D01*
X007460Y008100D02*
X007948Y008100D01*
X007948Y008258D02*
X007401Y008258D01*
X007340Y007624D02*
X007948Y007624D01*
X007948Y007466D02*
X007340Y007466D01*
X007340Y007307D02*
X007948Y007307D01*
X007948Y007149D02*
X007340Y007149D01*
X007340Y006990D02*
X007948Y006990D01*
X007948Y006832D02*
X007340Y006832D01*
X007340Y006673D02*
X007948Y006673D01*
X007948Y006515D02*
X007645Y006515D01*
X007710Y006356D02*
X007948Y006356D01*
X007808Y006198D02*
X007697Y006198D01*
X007650Y006039D02*
X007598Y006039D01*
X003916Y004613D02*
X002478Y004613D01*
X002423Y004454D02*
X003757Y004454D01*
X003599Y004296D02*
X002217Y004296D01*
X002058Y004137D02*
X003440Y004137D01*
X003282Y003979D02*
X001900Y003979D01*
X001346Y004592D02*
X001398Y004717D01*
X001465Y004784D01*
X001465Y004916D01*
X001612Y005064D01*
X001493Y005113D01*
X001398Y005208D01*
X001346Y005333D01*
X001346Y005467D01*
X001398Y005592D01*
X001465Y005659D01*
X001465Y005916D01*
X001524Y005975D01*
X001493Y005988D01*
X001398Y006083D01*
X001346Y006208D01*
X001346Y006302D01*
X001162Y006486D01*
X001042Y006437D01*
X000908Y006437D01*
X000820Y006473D01*
X000820Y004741D01*
X001191Y004370D01*
X001383Y004370D01*
X001346Y004458D01*
X001346Y004592D01*
X001355Y004613D02*
X000949Y004613D01*
X001107Y004454D02*
X001348Y004454D01*
X001452Y004771D02*
X000820Y004771D01*
X000820Y004930D02*
X001478Y004930D01*
X001554Y005088D02*
X000820Y005088D01*
X000820Y005247D02*
X001382Y005247D01*
X001346Y005405D02*
X000820Y005405D01*
X000820Y005564D02*
X001386Y005564D01*
X001465Y005722D02*
X000820Y005722D01*
X000820Y005881D02*
X001465Y005881D01*
X001442Y006039D02*
X000820Y006039D01*
X000820Y006198D02*
X001350Y006198D01*
X001293Y006356D02*
X000820Y006356D01*
X001234Y006995D02*
X001195Y007034D01*
X001195Y007809D01*
X001812Y008425D01*
X001812Y008302D01*
X002005Y008109D01*
X002005Y008034D01*
X001938Y007967D01*
X001887Y007842D01*
X001887Y007748D01*
X001380Y007241D01*
X001380Y007059D01*
X001380Y006901D01*
X001380Y006891D01*
X001276Y006995D01*
X001234Y006995D01*
X001281Y006990D02*
X001380Y006990D01*
X001380Y007149D02*
X001195Y007149D01*
X001195Y007307D02*
X001446Y007307D01*
X001604Y007466D02*
X001195Y007466D01*
X001195Y007624D02*
X001763Y007624D01*
X001887Y007783D02*
X001195Y007783D01*
X001327Y007941D02*
X001927Y007941D01*
X002005Y008100D02*
X001486Y008100D01*
X001644Y008258D02*
X001856Y008258D01*
X001812Y008417D02*
X001803Y008417D01*
X001656Y008892D02*
X000820Y008892D01*
X000820Y008900D02*
X000820Y008056D01*
X000884Y008120D01*
X001664Y008900D01*
X000820Y008900D01*
X000820Y008734D02*
X001497Y008734D01*
X001339Y008575D02*
X000820Y008575D01*
X000820Y008417D02*
X001180Y008417D01*
X001022Y008258D02*
X000820Y008258D01*
X000820Y008100D02*
X000863Y008100D01*
X001983Y005812D02*
X001905Y005734D01*
X001905Y005659D01*
X001972Y005592D01*
X001983Y005564D01*
X001983Y005812D01*
X001983Y005722D02*
X001905Y005722D01*
X002183Y005012D02*
X002183Y005004D01*
X002167Y004988D01*
X002160Y004988D01*
X002183Y005012D01*
X002496Y007982D02*
X002445Y008034D01*
X002445Y008198D01*
X002542Y008238D01*
X002637Y008333D01*
X002688Y008458D01*
X002688Y008552D01*
X002766Y008630D01*
X002851Y008630D01*
X002813Y008592D01*
X002762Y008467D01*
X002762Y008355D01*
X002658Y008312D01*
X002563Y008217D01*
X002512Y008092D01*
X002512Y007998D01*
X002496Y007982D01*
X002515Y008100D02*
X002445Y008100D01*
X002562Y008258D02*
X002604Y008258D01*
X002671Y008417D02*
X002762Y008417D01*
X002806Y008575D02*
X002711Y008575D01*
X002880Y001760D02*
X003570Y001760D01*
X003326Y001601D02*
X003124Y001601D01*
X003219Y001443D02*
X003231Y001443D01*
X003225Y001072D02*
X003255Y001000D01*
X003195Y001000D01*
X003225Y001072D01*
D12*
X001600Y003150D03*
X001685Y004525D03*
X002140Y004650D03*
X001685Y005400D03*
X001685Y006275D03*
X002375Y007062D03*
X002225Y007775D03*
X002350Y008525D03*
X002850Y008025D03*
X003100Y008400D03*
X002975Y010025D03*
X002725Y010400D03*
X002279Y010150D03*
X001450Y011350D03*
X002390Y013275D03*
X003060Y013275D03*
X003725Y010525D03*
X004350Y009400D03*
X004725Y008475D03*
X004600Y008025D03*
X003100Y005400D03*
X000975Y006775D03*
X004763Y012487D03*
X005850Y013832D03*
X006850Y013832D03*
X007850Y013832D03*
X006350Y010900D03*
X006100Y018150D03*
X001100Y015275D03*
D13*
X005600Y006000D03*
X005750Y006550D03*
X006250Y006500D03*
X007100Y008050D03*
X007650Y008650D03*
X007350Y006300D03*
D14*
X006250Y006500D02*
X006250Y003800D01*
X004725Y002275D01*
X004725Y001250D01*
X001725Y002125D02*
X004100Y004500D01*
X004600Y004500D01*
X005600Y005500D01*
X005600Y006000D01*
X003475Y012025D02*
X002394Y012025D01*
X002469Y012100D01*
X002580Y012212D01*
X002580Y013029D01*
X002652Y013100D01*
X002699Y013214D01*
X002699Y013336D01*
X002652Y013450D01*
X002565Y013536D01*
X002452Y013583D01*
X002329Y013583D01*
X002216Y013536D01*
X002129Y013450D01*
X002082Y013336D01*
X002082Y013214D01*
X002129Y013100D01*
X002200Y013029D01*
X002200Y012369D01*
X001856Y012025D01*
X000725Y012025D01*
X000725Y015150D01*
X001225Y015650D01*
X001225Y016775D01*
X002600Y016775D01*
X002600Y015400D01*
X002350Y015150D01*
X002350Y013650D01*
X003475Y013650D01*
X003475Y012025D01*
X003475Y012076D02*
X002445Y012076D01*
X002543Y012175D02*
X003475Y012175D01*
X003475Y012273D02*
X002580Y012273D01*
X002580Y012372D02*
X003475Y012372D01*
X003475Y012470D02*
X002580Y012470D01*
X002580Y012569D02*
X003475Y012569D01*
X003475Y012667D02*
X002580Y012667D01*
X002580Y012766D02*
X003475Y012766D01*
X003475Y012864D02*
X002580Y012864D01*
X002580Y012963D02*
X003475Y012963D01*
X003475Y013061D02*
X002613Y013061D01*
X002676Y013160D02*
X003475Y013160D01*
X003475Y013258D02*
X002699Y013258D01*
X002690Y013357D02*
X003475Y013357D01*
X003475Y013455D02*
X002646Y013455D01*
X002524Y013554D02*
X003475Y013554D01*
X003060Y013275D02*
X002827Y013275D01*
X002518Y013583D01*
X002167Y013583D01*
X002100Y013650D01*
X002134Y013455D02*
X000725Y013455D01*
X000725Y013357D02*
X002090Y013357D01*
X002082Y013258D02*
X000725Y013258D01*
X000725Y013160D02*
X002104Y013160D01*
X002168Y013061D02*
X000725Y013061D01*
X000725Y012963D02*
X002200Y012963D01*
X002200Y012864D02*
X000725Y012864D01*
X000725Y012766D02*
X002200Y012766D01*
X002200Y012667D02*
X000725Y012667D01*
X000725Y012569D02*
X002200Y012569D01*
X002200Y012470D02*
X000725Y012470D01*
X000725Y012372D02*
X002200Y012372D01*
X002104Y012273D02*
X000725Y012273D01*
X000725Y012175D02*
X002006Y012175D01*
X001907Y012076D02*
X000725Y012076D01*
X000725Y013554D02*
X002257Y013554D01*
X002350Y013652D02*
X000725Y013652D01*
X000725Y013751D02*
X002350Y013751D01*
X002350Y013849D02*
X000725Y013849D01*
X000725Y013948D02*
X002350Y013948D01*
X002350Y014046D02*
X000725Y014046D01*
X000725Y014145D02*
X002350Y014145D01*
X002350Y014243D02*
X000725Y014243D01*
X000725Y014342D02*
X002350Y014342D01*
X002350Y014440D02*
X000725Y014440D01*
X000725Y014539D02*
X002350Y014539D01*
X002350Y014637D02*
X000725Y014637D01*
X000725Y014736D02*
X002350Y014736D01*
X002350Y014834D02*
X000725Y014834D01*
X000725Y014933D02*
X002350Y014933D01*
X002350Y015031D02*
X000725Y015031D01*
X000725Y015130D02*
X002350Y015130D01*
X002428Y015228D02*
X000803Y015228D01*
X000902Y015327D02*
X002527Y015327D01*
X002600Y015425D02*
X001000Y015425D01*
X001099Y015524D02*
X002600Y015524D01*
X002600Y015622D02*
X001197Y015622D01*
X001225Y015721D02*
X002600Y015721D01*
X002600Y015819D02*
X001225Y015819D01*
X001225Y015918D02*
X002600Y015918D01*
X002600Y016016D02*
X001225Y016016D01*
X001225Y016115D02*
X002600Y016115D01*
X002600Y016213D02*
X001225Y016213D01*
X001225Y016312D02*
X002600Y016312D01*
X002600Y016410D02*
X001225Y016410D01*
X001225Y016509D02*
X002600Y016509D01*
X002600Y016607D02*
X001225Y016607D01*
X001225Y016706D02*
X002600Y016706D01*
X001100Y015275D02*
X002100Y014150D01*
X001185Y015150D02*
X001100Y015275D01*
X001725Y002125D02*
X001725Y001250D01*
D15*
X001760Y004150D02*
X001100Y004150D01*
X000600Y004650D01*
X000600Y011150D01*
X000800Y011350D01*
X001450Y011350D01*
X002390Y012290D01*
X002390Y013275D01*
X002100Y013650D02*
X002100Y014150D01*
X004616Y012487D02*
X002847Y010718D01*
X002593Y010718D01*
X002400Y010525D01*
X002400Y010271D01*
X002279Y010150D01*
X002600Y010275D02*
X002600Y009425D01*
X002300Y009125D01*
X002200Y009125D01*
X000975Y007900D01*
X000975Y006775D01*
X001185Y006775D01*
X001685Y006275D01*
X002003Y006143D02*
X001685Y005825D01*
X001685Y005400D01*
X002203Y005343D02*
X001685Y004825D01*
X001685Y004525D01*
X002003Y004393D02*
X001760Y004150D01*
X002003Y004393D02*
X002003Y004513D01*
X002140Y004650D01*
X002403Y004913D01*
X002403Y006573D01*
X002375Y006601D01*
X002375Y007062D01*
X002407Y007457D02*
X002189Y007457D01*
X001925Y007192D01*
X001925Y006825D01*
X002100Y006650D01*
X002100Y006593D01*
X002203Y006490D01*
X002203Y005343D01*
X002003Y006143D02*
X002003Y006407D01*
X001600Y006810D01*
X001600Y007150D01*
X002225Y007775D01*
X002225Y008200D01*
X002032Y008393D01*
X002032Y008657D01*
X002218Y008843D01*
X002350Y008843D01*
X002557Y009050D01*
X002850Y009050D01*
X002975Y009175D01*
X002975Y010025D01*
X002600Y010275D02*
X002725Y010400D01*
X002675Y008850D02*
X002350Y008525D01*
X002675Y008850D02*
X004300Y008850D01*
X004600Y009150D01*
X005192Y009150D01*
X005850Y009808D01*
X005850Y013832D01*
X006850Y013832D02*
X006850Y010525D01*
X005225Y008900D01*
X004675Y008900D01*
X004425Y008650D01*
X003350Y008650D01*
X003100Y008400D01*
X002850Y008025D02*
X002600Y007775D01*
X002600Y007650D01*
X002407Y007457D01*
X003850Y010400D02*
X003725Y010525D01*
X003850Y010400D02*
X004350Y010400D01*
X005100Y011150D01*
X005100Y016525D01*
X003975Y017650D01*
X002850Y017650D01*
X002225Y018275D01*
X003225Y018275D02*
X003850Y018900D01*
X004975Y018900D01*
X006350Y017525D01*
X006350Y010900D01*
X005475Y009775D02*
X005475Y017025D01*
X004225Y018275D01*
X004616Y012487D02*
X004763Y012487D01*
X005475Y009775D02*
X005100Y009400D01*
X004350Y009400D01*
X004710Y008135D02*
X004866Y008135D01*
X007850Y011119D01*
X007850Y013832D01*
X004710Y008135D02*
X004600Y008025D01*
M02*
