G75*
%MOIN*%
%OFA0B0*%
%FSLAX24Y24*%
%IPPOS*%
%LPD*%
%AMOC8*
5,1,8,0,0,1.08239X$1,22.5*
%
%ADD10R,0.0236X0.0866*%
%ADD11R,0.0394X0.0433*%
%ADD12R,0.0880X0.0980*%
%ADD13R,0.0445X0.0961*%
%ADD14R,0.0374X0.0138*%
%ADD15R,0.0138X0.0374*%
%ADD16R,0.0878X0.0878*%
%ADD17R,0.0120X0.0390*%
%ADD18R,0.0299X0.0299*%
%ADD19R,0.0315X0.0138*%
%ADD20R,0.0098X0.0197*%
%ADD21R,0.0945X0.0331*%
%ADD22R,0.1457X0.0386*%
%ADD23R,0.0433X0.0394*%
%ADD24C,0.0118*%
%ADD25R,0.0276X0.0276*%
D10*
X005350Y005251D03*
X005850Y005251D03*
X006350Y005251D03*
X006850Y005251D03*
X006850Y007299D03*
X006350Y007299D03*
X005850Y007299D03*
X005350Y007299D03*
D11*
X001015Y004525D03*
X001015Y005400D03*
X001015Y006275D03*
X001685Y006275D03*
X001685Y005400D03*
X001685Y004525D03*
X004086Y009900D03*
X004755Y009900D03*
X005350Y008860D03*
X005350Y008190D03*
X005975Y008190D03*
X005975Y008860D03*
X006060Y009900D03*
X005390Y009900D03*
X005390Y011900D03*
X004739Y011900D03*
X004070Y011900D03*
X003060Y012400D03*
X002390Y012400D03*
X001810Y012400D03*
X001140Y012400D03*
X000975Y014065D03*
X000975Y014735D03*
X006060Y011900D03*
X007850Y007235D03*
X007850Y006565D03*
X007850Y005860D03*
X007850Y005190D03*
D12*
X008100Y008150D03*
X008100Y009150D03*
X007100Y008900D03*
D13*
X006850Y013832D03*
X005850Y013832D03*
X005850Y017218D03*
X006850Y017218D03*
X007850Y017218D03*
X007850Y013832D03*
D14*
X003824Y005784D03*
X003824Y005528D03*
X003824Y005272D03*
X003824Y005016D03*
X002376Y005016D03*
X002376Y005272D03*
X002376Y005528D03*
X002376Y005784D03*
D15*
X002716Y006124D03*
X002972Y006124D03*
X003228Y006124D03*
X003484Y006124D03*
X003484Y004676D03*
X003228Y004676D03*
X002972Y004676D03*
X002716Y004676D03*
D16*
X003100Y005400D03*
D17*
X002984Y009501D03*
X003240Y009501D03*
X003496Y009501D03*
X002728Y009501D03*
X002472Y009501D03*
X002216Y009501D03*
X001960Y009501D03*
X001704Y009501D03*
X001704Y011799D03*
X001960Y011799D03*
X002216Y011799D03*
X002472Y011799D03*
X002728Y011799D03*
X002984Y011799D03*
X003240Y011799D03*
X003496Y011799D03*
D18*
X003399Y008774D03*
X003399Y008026D03*
X002801Y008525D03*
X001899Y008151D03*
X001801Y007650D03*
X001899Y008899D03*
X000899Y008024D03*
X000899Y007276D03*
X004301Y008400D03*
D19*
X007101Y012519D03*
X007101Y012775D03*
X007101Y013031D03*
X007849Y013031D03*
X007849Y012519D03*
D20*
X002494Y014026D03*
X002297Y014026D03*
X002100Y014026D03*
X001903Y014026D03*
X001706Y014026D03*
X001706Y014774D03*
X001903Y014774D03*
X002100Y014774D03*
X002297Y014774D03*
X002494Y014774D03*
D21*
X002100Y014400D03*
D22*
X003850Y014308D03*
X003850Y015242D03*
D23*
X003060Y013275D03*
X002390Y013275D03*
X001810Y013275D03*
X001140Y013275D03*
X001640Y015525D03*
X001640Y016400D03*
X002310Y016400D03*
X002310Y015525D03*
X001100Y009235D03*
X001100Y008565D03*
X002850Y007485D03*
X002850Y006815D03*
X003725Y006815D03*
X003725Y007485D03*
X004600Y007485D03*
X004600Y006815D03*
X004600Y006235D03*
X004600Y005565D03*
X004350Y004110D03*
X004350Y003440D03*
X003475Y003440D03*
X003475Y004110D03*
X002600Y004110D03*
X002600Y003440D03*
X005225Y003440D03*
X005225Y004110D03*
X007100Y010065D03*
X007100Y010735D03*
X007100Y011315D03*
X007100Y011985D03*
D24*
X007837Y011857D02*
X008113Y011857D01*
X007837Y011857D02*
X007837Y012133D01*
X008113Y012133D01*
X008113Y011857D01*
X008113Y011974D02*
X007837Y011974D01*
X007837Y012091D02*
X008113Y012091D01*
X008113Y011167D02*
X007837Y011167D01*
X007837Y011443D01*
X008113Y011443D01*
X008113Y011167D01*
X008113Y011284D02*
X007837Y011284D01*
X007837Y011401D02*
X008113Y011401D01*
X008113Y010883D02*
X007837Y010883D01*
X008113Y010883D02*
X008113Y010607D01*
X007837Y010607D01*
X007837Y010883D01*
X007837Y010724D02*
X008113Y010724D01*
X008113Y010841D02*
X007837Y010841D01*
X007837Y010193D02*
X008113Y010193D01*
X008113Y009917D01*
X007837Y009917D01*
X007837Y010193D01*
X007837Y010034D02*
X008113Y010034D01*
X008113Y010151D02*
X007837Y010151D01*
D25*
X005981Y010536D03*
X005725Y011264D03*
X005469Y010536D03*
X004677Y010536D03*
X004421Y011264D03*
X004165Y010536D03*
M02*
