G75*
%MOIN*%
%OFA0B0*%
%FSLAX25Y25*%
%IPPOS*%
%LPD*%
%AMOC8*
5,1,8,0,0,1.08239X$1,22.5*
%
%ADD10C,0.07991*%
%ADD11OC8,0.03150*%
%ADD12OC8,0.04134*%
%ADD13C,0.04134*%
D10*
X0017250Y0012500D03*
X0027250Y0012500D03*
X0037250Y0012500D03*
X0047250Y0012500D03*
X0057250Y0012500D03*
X0067250Y0012500D03*
X0077250Y0012500D03*
X0042250Y0182750D03*
X0032250Y0182750D03*
X0022250Y0182750D03*
X0012250Y0182750D03*
D11*
X0014500Y0113500D03*
X0022787Y0101500D03*
X0027250Y0104000D03*
X0029750Y0100250D03*
X0023625Y0085250D03*
X0023625Y0081750D03*
X0029000Y0081000D03*
X0023750Y0070616D03*
X0016846Y0062750D03*
X0016846Y0054000D03*
X0016846Y0045250D03*
X0021399Y0046500D03*
X0009750Y0067750D03*
X0037250Y0105250D03*
X0043500Y0094000D03*
X0047250Y0084750D03*
X0042244Y0078461D03*
X0038500Y0083250D03*
X0056000Y0060000D03*
X0057500Y0065500D03*
X0062500Y0065000D03*
X0071000Y0080500D03*
X0076500Y0086500D03*
X0073500Y0063000D03*
X0063500Y0109000D03*
X0058500Y0138321D03*
X0068500Y0138321D03*
X0078500Y0138321D03*
X0047627Y0124873D03*
D12*
X0016000Y0031500D03*
X0025510Y0131750D03*
X0032990Y0131750D03*
X0010000Y0152250D03*
D13*
X0031000Y0054000D03*
X0061000Y0181500D03*
M02*
