%
M48
M72
T01C0.01378
T02C0.01575
T03C0.01969
T04C0.04000
%
T01
X16846Y45250
X21399Y46500
X16846Y54000
X16846Y62750
X23750Y70616
X23625Y81750
X23625Y85250
X29000Y81000
X38500Y83250
X42244Y78461
X47250Y84750
X43500Y94000
X37250Y105250
X29750Y100250
X27250Y104000
X22787Y101500
X14500Y113500
X9750Y67750
X47627Y124873
X58500Y138321
X68500Y138321
X78500Y138321
X63500Y109000
X76500Y86500
X71000Y80500
X73500Y63000
X62500Y65000
X57500Y65500
X56000Y60000
T02
X22362Y144000
X17638Y144000
T03
X16000Y31500
X31000Y54000
X32990Y131750
X25510Y131750
X10000Y152250
X61000Y181500
T04
X42250Y182750
X32250Y182750
X22250Y182750
X12250Y182750
X17250Y12500
X27250Y12500
X37250Y12500
X47250Y12500
X57250Y12500
X67250Y12500
X77250Y12500
M30
