%
M48
M72
T01C0.0197
T02C0.0240
T03C0.0400
%
T01
X1600Y3150
X1685Y4525
X2140Y4650
X1685Y5400
X1685Y6275
X2375Y7062
X2225Y7775
X2350Y8525
X2850Y8025
X3100Y8400
X2975Y10025
X2725Y10400
X2279Y10150
X1450Y11350
X2390Y13275
X3060Y13275
X3725Y10525
X4350Y9400
X4725Y8475
X4600Y8025
X3100Y5400
X975Y6775
X4763Y12487
X5850Y13832
X6850Y13832
X7850Y13832
X6350Y10900
X6100Y18150
X1100Y15275
T02
X5600Y6000
X5750Y6550
X6250Y6500
X7100Y8050
X7650Y8650
X7350Y6300
T03
X7725Y1250
X6725Y1250
X5725Y1250
X4725Y1250
X3725Y1250
X2725Y1250
X1725Y1250
X1225Y18275
X2225Y18275
X3225Y18275
X4225Y18275
M30
